<?xml version="1.0" encoding="UTF-8"?>
<svg xmlns="http://www.w3.org/2000/svg" viewBox="0 0 4531.02 1103.85">
  <defs>
    <style>
      .cls-1 {
        opacity: .28;
      }

      .cls-1, .cls-2, .cls-3, .cls-4, .cls-5, .cls-6, .cls-7, .cls-8 {
        mix-blend-mode: multiply;
      }

      .cls-1, .cls-9, .cls-3, .cls-4 {
        fill: #cecdcd;
      }

      .cls-10 {
        fill: #3d2d04;
      }

      .cls-11 {
        fill: #4c4109;
      }

      .cls-2 {
        opacity: .33;
      }

      .cls-12 {
        fill: #fff;
      }

      .cls-13 {
        fill: #5b350f;
      }

      .cls-14 {
        fill: #c9c7b6;
      }

      .cls-4, .cls-7, .cls-8 {
        opacity: .5;
      }

      .cls-15 {
        fill: #231f20;
      }

      .cls-16 {
        isolation: isolate;
      }

      .cls-17 {
        fill: #ced5cb;
      }

      .cls-18 {
        fill: #543a07;
      }

      .cls-5 {
        fill: #263b76;
      }

      .cls-7 {
        fill: #e5e3e2;
      }

      .cls-19 {
        fill: #e6e7e8;
      }
    </style>
  </defs>
  <g class="cls-16">
    <g id="Layer_2">
      <g id="Layer_1-2" data-name="Layer_1">
        <g>
          <path class="cls-18" d="M2051.61,925.81v124.64s218.3-80.98,429.25,0v-97.8s-130.55-100.53-429.25-26.83Z"/>
          <g>
            <path class="cls-13" d="M2041.74,967.3v24.72s218.3-80.98,429.25,0v-24.72s-130.55-73.7-429.25,0Z"/>
            <path class="cls-5" d="M2480.97,1051.4c-.39,0-.79-.07-1.17-.22-207.32-79.6-424.78-.8-426.95.01-1,.37-2.11.23-2.99-.38-.87-.61-1.39-1.61-1.39-2.67v-24.72c0-1.5,1.02-2.8,2.47-3.16,85.44-21.08,211.67-43,327.84-27.71,69.8,9.19,102.43,27.27,103.79,28.03,1.02.58,1.65,1.66,1.65,2.83v24.72c0,1.07-.53,2.07-1.41,2.68-.55.38-1.19.57-1.84.57ZM2054.98,1025.98v17.61c31.8-10.68,230.79-71.74,422.74-.14v-18.03c-16.02-7.92-148.39-66.58-422.74.57Z"/>
          </g>
          <g>
            <g class="cls-6">
              <polygon class="cls-11" points="520.18 491.8 0 1067.73 2046.92 1050.45 2046.92 491.8 520.18 491.8"/>
            </g>
            <g class="cls-6">
              <path class="cls-11" d="M466.26,1016.26c148.08-18.05,297.1-27.71,446.18-32.39,148.52-4.67,297.3-5.25,445.82-.41,156.09,5.08,312.03,16.26,467.11,34.88,74.28,8.92,148.37,19.57,222.12,32.15l4.12-.03V491.8H524.87L4.7,1067.73l160.65-1.36c99.38-21.65,199.98-37.81,300.91-50.11Z"/>
            </g>
            <g>
              <polygon class="cls-13" points="4.7 1100.6 4.7 1067.73 2051.61 1025.73 2051.61 1050.45 4.7 1100.6"/>
              <path class="cls-5" d="M4.7,1103.85c-.85,0-1.66-.33-2.27-.92-.63-.61-.98-1.45-.98-2.33v-32.87c0-1.77,1.42-3.21,3.18-3.25l2046.92-42c.87-.04,1.72.32,2.34.93.62.61.98,1.45.98,2.32v24.72c0,1.77-1.41,3.21-3.17,3.25L4.77,1103.85h-.08ZM7.95,1070.92v26.36l2040.41-50v-18.23L7.95,1070.92Z"/>
            </g>
          </g>
          <g>
            <g>
              <path class="cls-19" d="M2082.82,998.29c19.15-4.92,96.25-16.94,115.91-18.78,22.49-2.09,45-2.17,67.5-1.07v-390.63c-588.97-250.11-1707.35-79.57-1707.35-79.57l-385.74,373.13-127.93,169.51c1162.16-195.67,1856.78-73.38,1997-42.73,13.59-3.06,27.12-6.4,40.62-9.87Z"/>
              <path class="cls-14" d="M45.21,1054.14c-1.12,0-2.18-.58-2.78-1.57-.69-1.14-.62-2.58.18-3.65l127.93-169.51c.1-.13.21-.26.33-.38l385.74-373.13c.49-.47,1.1-.77,1.77-.88,2.8-.43,283.83-42.79,633.2-54.04,205.22-6.6,393.55-1.34,559.73,15.65,207.88,21.25,381.54,61.01,516.19,118.19,1.2.51,1.98,1.69,1.98,2.99v390.63c0,.89-.37,1.74-1.01,2.36-.64.61-1.52.95-2.4.89-24.57-1.21-46.5-.86-67.04,1.06-19.4,1.81-96.12,13.74-115.4,18.69-15.68,4.03-28.62,7.17-40.71,9.89-.46.11-.94.1-1.41,0-126.57-27.66-817.6-155.61-1995.76,42.76-.18.03-.36.04-.54.04ZM175.58,883.54l-122.86,162.79c1172.32-196.28,1861.16-69.46,1989.47-41.5,11.82-2.67,24.5-5.75,39.82-9.69l.81,3.15-.81-3.15c19.48-5,96.87-17.04,116.42-18.87,19.9-1.85,41.05-2.26,64.55-1.23v-385.07c-133.75-56.46-306.1-95.78-512.29-116.86-165.89-16.96-353.9-22.21-558.82-15.62-338.37,10.89-612.54,51-631.48,53.82l-384.81,372.23Z"/>
            </g>
            <path class="cls-9" d="M1995.96,959.78c-172.9-34.17-349.14-48.1-525.07-53.98-175.45-5.86-351.08-7.18-526.44,1.99-175.8,9.2-350.71,28.34-524.95,53.18-123.76,17.64-247.61,40.33-366.34,79.37l-7.95,10.54c1162.16-195.67,1856.78-73.38,1997-42.73,13.59-3.06,27.12-6.4,40.62-9.87,7.78-2,25.11-5.17,44.27-8.35-43.32-11.42-87-21.44-131.14-30.16Z"/>
            <path class="cls-9" d="M125.65,956.08c148.11-14.63,294.54-42.49,442.58-57.65,149.33-15.29,299.94-23.51,449.93-28.56,148.35-5,297.24-5.81,445.43,3.65,142.37,9.09,284.07,27.3,424.45,52.6,92.06,16.59,183.53,36.28,274.45,58.24,15.76-2.36,29.43-4.21,36.23-4.84,22.49-2.1,45-2.17,67.5-1.07v-390.63c-588.97-250.11-1707.35-79.57-1707.35-79.57l-385.74,373.13-57.05,75.59c3.19-.3,6.38-.57,9.56-.89Z"/>
            <g class="cls-8">
              <path class="cls-9" d="M558.88,508.24l-385.74,373.13-17.33,22.97c89.09-10.31,177.1-28.84,266-40.71,94.74-12.64,190.15-19.08,285.51-24.85,96.17-5.82,192.24-11.21,288.62-11.49,47.77-.14,95.54.71,143.27,2.62,45.8,1.83,91.51,5.82,137.33,6.98,80.47,2.04,165.04-1.05,241.84,26.88,1.94.71-149.61-5.5-180.02-6.05-110.27-2.01-220.36-7.45-330.68-6.27-105.17,1.12-210.53,6.98-314.43,23.89,22.08.64,44.19-1.55,66.16-3.68,26.87-2.6,53.37-3.75,80.37-3.5,103.3.94,206.59,5.81,309.81,9.79,103.09,3.98,206.43,7.8,308.39,24.67,1.59.26-164.27,7.67-246.16,9.61-163.45,3.85-327.16,13.55-489.24,35.49-71.68,9.7-143.06,22.31-213.69,38.2,883.43-98.01,1412.89-4.08,1533.33,22.24,13.59-3.06,27.12-6.4,40.62-9.87,19.15-4.92,96.25-16.94,115.91-18.78,22.49-2.1,45-2.17,67.5-1.07v-390.63c-588.97-250.11-1707.35-79.57-1707.35-79.57Z"/>
            </g>
            <g>
              <g>
                <path class="cls-12" d="M2266.23,418.31c-555.05-250.11-1609.01-79.57-1609.01-79.57L173.14,881.37c1140.83-203.82,2000.94,69.27,2093.09,92.5V418.31Z"/>
                <path class="cls-15" d="M2266.23,977.12c-.27,0-.53-.03-.8-.1-5.8-1.46-14.38-3.84-26.25-7.13-83.21-23.06-336.42-93.25-697.37-132.4-456.06-49.46-916.36-33.63-1368.11,47.08-1.37.24-2.73-.41-3.41-1.62-.68-1.21-.51-2.71.41-3.75l484.09-542.64c.5-.56,1.17-.92,1.91-1.04,2.64-.43,267.5-42.8,596.77-54.04,193.42-6.61,370.91-1.34,527.54,15.65,195.94,21.25,359.64,61.03,486.55,118.22,1.17.53,1.92,1.69,1.92,2.97v555.56c0,1-.46,1.95-1.25,2.57-.58.45-1.28.69-2,.69ZM1021.86,802.87c173.73,0,347.46,9.38,520.67,28.16,361.48,39.21,615.07,109.5,698.41,132.6,9.31,2.58,16.59,4.6,22.06,6.04V420.41c-126.01-56.44-288.38-95.75-482.63-116.82-156.31-16.95-333.48-22.2-526.58-15.62-317.87,10.85-575.63,50.74-594.9,53.79L181.82,876.53c277.77-49.07,558.84-73.66,840.04-73.66Z"/>
              </g>
              <g>
                <path class="cls-12" d="M2266.23,418.31c-555.05-250.11-1609.01-79.57-1609.01-79.57L125.16,914.48c1140.83-203.82,2048.92,36.16,2141.07,59.39V418.31Z"/>
                <path class="cls-17" d="M2266.23,977.12c-.27,0-.53-.03-.8-.1l-5.98-1.52c-259.21-65.83-519.48-99.04-692.18-115.29-486.65-45.82-971.66-26.48-1441.54,57.47-1.37.25-2.75-.41-3.42-1.64-.67-1.23-.48-2.74.46-3.77L654.84,336.52c.49-.53,1.15-.89,1.87-1,2.64-.43,267.5-42.8,596.77-54.04,193.42-6.61,370.91-1.34,527.54,15.65,195.94,21.25,359.64,61.03,486.55,118.22,1.17.53,1.92,1.69,1.92,2.97v555.56c0,1-.46,1.95-1.25,2.57-.58.45-1.28.69-2,.69ZM1054.39,829.52c170.6,0,341.9,8.06,513.5,24.22,172.93,16.28,433.56,49.53,693.17,115.47l1.92.49V420.41c-126.01-56.44-288.38-95.75-482.63-116.82-156.31-16.96-333.48-22.21-526.58-15.62-318.05,10.86-575.92,50.79-594.93,53.79L134.11,909.59c301.72-53.32,609.75-80.06,920.28-80.06Z"/>
              </g>
              <path class="cls-4" d="M2266.23,418.31c-555.05-250.11-1609.01-79.57-1609.01-79.57L155.42,881.74c1140.83-203.82,2018.66,68.91,2110.81,92.13V418.31Z"/>
              <g>
                <path class="cls-12" d="M2266.23,415.01c-561.83-244.06-1628.68-77.65-1628.68-77.65L147.55,866.87c1154.78-198.89,2025.4,67.59,2118.68,90.26V415.01Z"/>
                <path class="cls-17" d="M2266.23,960.38c-.26,0-.51-.03-.77-.09-5.87-1.43-14.55-3.75-26.57-6.96-84.23-22.5-340.55-90.99-705.92-129.2-461.65-48.27-927.59-32.81-1384.87,45.94-1.37.24-2.74-.43-3.41-1.65-.66-1.23-.48-2.74.47-3.76l490-529.52c.5-.54,1.16-.89,1.89-1,2.67-.42,270.76-41.76,604.05-52.73,195.77-6.45,375.43-1.31,533.97,15.27,198.32,20.74,364.01,59.55,492.46,115.35,1.19.51,1.96,1.69,1.96,2.98v542.12c0,1-.46,1.94-1.24,2.56-.58.45-1.29.69-2.01.69ZM1006.65,790.18c175.82,0,351.72,9.16,527.01,27.48,365.88,38.26,622.57,106.84,706.92,129.38,9.47,2.53,16.86,4.5,22.41,5.92V417.14c-127.56-55.08-291.91-93.43-488.55-113.99-158.23-16.54-337.57-21.68-533.04-15.24-321.97,10.6-583.01,49.57-602.22,52.49L156.45,862.05c281.16-47.87,565.58-71.87,850.2-71.87Z"/>
              </g>
              <path class="cls-4" d="M2266.23,415.01c-561.83-244.06-1628.68-77.65-1628.68-77.65l-444.92,480.8c1154.78-198.89,1980.32,116.31,2073.6,138.97V415.01Z"/>
              <g>
                <path class="cls-12" d="M2266.23,415.01c-561.83-244.06-1712.79-52.77-1712.79-52.77l-405.89,444.56c1154.78-198.89,2025.4,127.65,2118.68,150.32V415.01Z"/>
                <path class="cls-17" d="M2266.23,960.38c-.26,0-.51-.03-.77-.09-8.94-2.17-25.02-7.13-47.28-13.99-108.7-33.51-363.26-111.99-723.5-160.31-450.28-60.4-903.33-52.31-1346.58,24.03-1.37.24-2.74-.42-3.4-1.64-.67-1.22-.49-2.73.45-3.75l405.89-444.57c.49-.54,1.15-.9,1.87-1.02,2.88-.48,292.02-48.05,646.08-65.18,207.99-10.05,397.36-7.81,562.88,6.71,207.06,18.15,377.19,55.65,505.66,111.46,1.19.51,1.96,1.69,1.96,2.98v542.12c0,1-.46,1.94-1.24,2.56-.58.45-1.29.69-2.01.69ZM898.03,739.51c199.02,0,398.5,13.33,597.52,40.03,360.77,48.39,615.69,126.98,724.55,160.54,19.1,5.89,33.63,10.37,42.88,12.85V417.14c-127.59-55.06-296.35-92.1-501.64-110.1-165.21-14.49-354.28-16.74-561.96-6.7-342.6,16.57-624.34,61.67-644.29,64.92l-398.74,436.74c244.95-41.65,492.94-62.5,741.69-62.5Z"/>
              </g>
              <path class="cls-4" d="M553.45,362.24l-140.2,153.56c124.88-4.33,250.24-12.78,375.04-2.61,129.24,10.53,257.54,31.64,385.16,54.09,120.96,21.28,242.53,41.78,361.94,70.77,56.88,13.81,113.24,30.51,167.1,53.62,22.38,9.6,43.9,19.88,62.49,35.86,15.18,13.06,160.22,112.66,166.88,136.29,243.6,52.09,298.01,84.46,334.39,93.3V415.01c-561.83-244.06-1712.79-52.77-1712.79-52.77Z"/>
              <path class="cls-1" d="M328.96,629.04c41.41-7.09,82.86-14.01,124.43-20.15,80.8-11.92,161.48-18.06,242.92-23.18,164.93-10.39,330.61-3.63,494.67,15.38,147.11,17.05,292.24,44.83,435.42,82.66,135.77,35.87,269.42,80.62,397.92,137.42,83.37,36.85,164.56,78.93,241.91,127.14V415.01c-561.83-244.06-1712.79-52.77-1712.79-52.77l-247.52,271.1c7.68-1.52,15.36-2.99,23.03-4.31Z"/>
            </g>
            <g>
              <path class="cls-12" d="M2266.23,957.13s-359.61-286.77-1047.25-415.63c-687.64-128.87-988.28-22-988.28-22L672.07,32.3s1067.84-185.26,1594.16,378.84v545.98Z"/>
              <path class="cls-17" d="M2266.23,960.38c-.72,0-1.44-.24-2.03-.71-.9-.72-91.79-72.58-265.41-159.24-160.23-79.98-425.69-189.27-780.41-255.75-354.61-66.45-603.98-68.93-750.74-59.31-158.99,10.42-235.1,36.91-235.85,37.17-1.41.5-2.97-.02-3.79-1.26-.83-1.24-.7-2.88.29-3.99L669.66,30.12c.49-.54,1.14-.9,1.85-1.02,2.67-.46,271.16-46.1,600.5-22.16,193.49,14.07,369.85,49.05,524.18,103.97,193.06,68.7,352,168.96,472.41,298.02.56.6.87,1.4.87,2.22v545.98c0,1.25-.72,2.39-1.84,2.93-.45.22-.93.32-1.41.32ZM600.91,474.74c148.77,0,354.62,14.07,618.68,63.56,355.58,66.64,621.7,176.23,782.34,256.43,150.66,75.22,239.3,139.4,261.06,155.8V412.43c-119.57-127.81-277.32-227.19-468.89-295.36-153.76-54.72-329.52-89.58-522.4-103.62-317.86-23.13-578.88,18.71-597.97,21.88l-432.67,477.58c26.78-7.65,100.88-25.77,225.71-33.99,37.87-2.49,82.59-4.18,134.14-4.18Z"/>
            </g>
            <path class="cls-7" d="M1412.87,24.56c90.73,20.13,180.87,44.66,266.78,80.45,42.15,17.56,83.21,37.81,122.33,61.4,35.5,21.41,71.8,44.56,99.41,75.91,49.64,56.37,77.73,135.75,68.04,210.87-4.74,36.76-19.1,73.03-43.32,101.39-27.13,31.76-70.89,30.52-108.99,28.35-53.74-3.06-106.98-5.78-160.35-13.4-54.85-7.83-108.99-19.18-163.18-30.57-108.89-22.89-218.2-44.06-328.33-60.18-110.81-16.21-222.52-27.3-334.51-30.34-111.98-3.04-225.24,1.67-335.85,20.08-33.36,5.55-68.23,11.57-102.42,20.23,154.71-17.35,424.42-22.61,826.52,52.75,687.64,128.87,1047.25,415.63,1047.25,415.63V411.14C2039.41,168.04,1712.02,64.12,1412.87,24.56Z"/>
            <path class="cls-4" d="M1949.38,179.13c4.76,3,9.51,6.02,14.22,9.1,40.73,26.64,79.83,56.72,112.56,92.94,30.42,33.67,54.95,73.02,67.07,117.01,10.4,37.74,10.01,77.86,7.44,116.63-3.09,46.62-10.26,94.35-27.03,138.17-6.87,17.95-15.57,35.74-28.29,50.31-6.24,7.14-13.68,13.51-22.03,18.05-11.06,6-23.52,8.78-35.98,9.86-27.87,2.41-55.85-3.12-83.23-7.59-31.95-5.21-64.32-8.32-96.59-10.82-18.09-1.4-36.2-2.51-54.32-3.42,305.6,122.26,463.03,247.75,463.03,247.75V411.14c-91.95-98.55-200.43-174.22-316.85-232.01Z"/>
          </g>
          <g>
            <g class="cls-6">
              <polygon class="cls-10" points="4007.6 491.8 4527.77 1067.73 2480.86 1050.45 2480.86 491.8 4007.6 491.8"/>
            </g>
            <g class="cls-6">
              <path class="cls-11" d="M2694.35,1028.17c72.81-12.45,145.36-20.78,219.14-24.28,151.81-7.19,303.74-12.3,455.73-13.61,151.48-1.31,302.39,6.21,453.25,19.8,149.36,13.46,298.23,31.63,447.26,48.19,24.15,2.68,48.31,5.32,72.48,7.89l185.56,1.57-520.18-575.93h-1526.74v558.65l83.26.7c43.45-7.39,86.79-15.55,130.23-22.98Z"/>
            </g>
            <g>
              <polygon class="cls-13" points="4527.77 1100.6 4527.77 1067.73 2480.86 1025.73 2480.86 1050.45 4527.77 1100.6"/>
              <path class="cls-5" d="M4527.77,1103.85h-.08l-2046.92-50.15c-1.76-.04-3.17-1.49-3.17-3.25v-24.72c0-.87.35-1.71.98-2.32.62-.61,1.46-.95,2.34-.93l2046.92,42c1.77.04,3.19,1.48,3.19,3.25v32.87c0,.88-.35,1.71-.98,2.33-.61.59-1.42.92-2.27.92ZM2484.11,1047.28l2040.41,50v-26.36l-2040.41-41.87v18.23Z"/>
            </g>
          </g>
          <g>
            <path class="cls-19" d="M2449.65,998.29c-19.15-4.92-96.25-16.94-115.91-18.78-22.49-2.09-45-2.17-67.5-1.07v-390.63c588.97-250.11,1707.35-79.57,1707.35-79.57l385.74,373.13,127.93,169.51c-1162.16-195.67-1856.78-73.38-1997-42.73-13.59-3.06-27.12-6.4-40.62-9.87Z"/>
            <path class="cls-14" d="M4487.26,1054.14c-.18,0-.36-.02-.54-.04-1178.17-198.37-1869.2-70.42-1995.76-42.76-.46.1-.94.1-1.41,0-12.07-2.72-25.01-5.86-40.71-9.89-19.28-4.95-96.01-16.88-115.4-18.69-20.54-1.92-42.47-2.26-67.04-1.06-.85.07-1.76-.28-2.4-.89-.64-.62-1.01-1.47-1.01-2.36v-390.63c0-1.31.78-2.48,1.98-2.99,134.64-57.18,308.31-96.94,516.19-118.19,166.18-16.99,354.51-22.25,559.73-15.65,349.37,11.25,630.4,53.61,633.2,54.04.67.1,1.28.41,1.77.88l385.74,373.13c.12.12.23.24.33.38l127.93,169.51c.8,1.06.87,2.51.18,3.65-.6.98-1.66,1.57-2.78,1.57ZM3269.53,938.74c315.36,0,720.58,25.6,1210.22,107.58l-122.86-162.79-384.81-372.23c-18.94-2.82-293.11-42.93-631.48-53.82-204.92-6.59-392.94-1.34-558.82,15.62-206.18,21.08-378.53,60.4-512.28,116.86v385.07c23.51-1.03,44.65-.62,64.55,1.23,19.55,1.82,96.94,13.86,116.42,18.87,15.33,3.94,28.01,7.02,39.82,9.69,74.72-16.28,339.56-66.09,779.26-66.09Z"/>
          </g>
          <g>
            <path class="cls-9" d="M2333.73,979.51c4.36.41,11.55,1.31,20.3,2.53,58.1-20.72,118.56-34.61,178.99-46.55,71.76-14.18,143.88-27.63,216.05-39.56,160.86-26.58,323.24-39.62,485.89-49.07,160.94-9.35,322.4-12.19,483.47-4.27,160.27,7.88,319.67,26.98,476.74,60.02,70.8,14.89,142.35,27.97,213.19,43.73l-49.04-64.97-385.74-373.13s-1118.38-170.54-1707.35,79.57v390.63c22.5-1.1,45.01-1.03,67.5,1.07Z"/>
            <path class="cls-9" d="M4191.62,963.83c-159.59-26.61-321.17-39.3-482.81-44.05-160.01-4.7-320.12-1.75-480.11,2.24-141.53,3.53-283.65,4.89-424.67,18.55-108.23,10.48-217.64,28.66-320.11,66.1,2.11.49,4.22,1.01,6.34,1.49,140.22-30.65,834.84-152.94,1997,42.73l-19.83-26.27c-91.25-23.57-182.98-45.3-275.81-60.78Z"/>
          </g>
          <g class="cls-2">
            <path class="cls-9" d="M3314.54,927.23c-117.57-6.36-235.35.07-353-2-1.85-.03-2.19-2.68-.43-3.19,80.84-23.56,164.52-39.35,248.78-42.57-101.58-6-202.94,15.54-304.45,17.71-1.96.04-2.05-2.58-.43-3.19,10.62-4.07,21.39-7.72,32.3-10.96,43.91-13.04,89.39-20.08,134.73-25.94,49.03-6.34,98.08-12.93,147.27-17.89,103.61-10.43,207.8-14.42,311.91-13.79,103.61.62,207.25,5.79,310.63,12.55,104.58,6.84,208.99,16.02,313.38,25.23,67.85,5.99,137.38,7.7,204.88,19.22l-.77-1.02-385.74-373.13s-1118.38-170.54-1707.35,79.57v390.63c22.5-1.1,45.01-1.03,67.5,1.07,19.66,1.83,96.77,13.86,115.91,18.78,13.5,3.47,27.02,6.81,40.62,9.87,98.66-21.56,471.83-88.5,1089.21-58.12-87.88-11.53-176.59-18.04-264.94-22.81Z"/>
          </g>
          <g class="cls-2">
            <path class="cls-3" d="M2767.61,953.47c44.62-11.22,89.59-21.01,134.49-31.02-24.89-.97-49.82.26-74.61,2.57-25.81,2.41-51.5,6-77.15,9.7-24.42,3.53-48.81,6.78-73,11.7-48.71,9.9-97.36,23.18-147.36,24.13-1.99.04-2.01-2.55-.43-3.19,28.68-11.74,58.26-21.11,88.12-29.36,26.66-7.37,53.55-13.85,80.45-20.29,27.91-6.68,55.8-12.77,84.15-17.26,51.97-8.22,104.47-13.26,156.09-23.57-30.36.43-60.69,1.89-90.96,4.22-64.25,4.95-128.54,12.75-192.2,22.74-31.42,4.93-62.58,11.33-93.59,18.37-14.94,3.39-29.97,6.6-44.8,10.42-13.38,3.45-26.85,7.57-40.78,7.71-1.96.02-2.05-2.57-.43-3.19,33.58-12.96,68.04-23.48,102.77-32.91,62.1-16.85,124.77-32.24,187.92-44.6,60.03-11.75,120.44-21.79,179.96-35.98-1.86-.02-3.71-.06-5.57-.07-51.6-.21-103.18,2.87-154.51,7.99-51.03,5.09-101.99,11.93-152.53,20.66-46.59,8.05-93,17.21-138.99,28.2-46.95,11.21-93.48,24.3-139.08,40.18-30.3,10.55-60.17,22.38-89.34,35.72v22.12c22.5-1.1,45.01-1.03,67.5,1.07,19.66,1.83,96.77,13.86,115.91,18.78,13.5,3.47,27.02,6.81,40.62,9.87,33.86-7.4,100.06-20.15,197.35-32.47,26.45-8.16,53.16-15.47,79.99-22.22Z"/>
          </g>
          <g>
            <g>
              <path class="cls-12" d="M2266.23,411.14c555.05-250.11,1609.01-89.16,1609.01-89.16l555.14,598.93c-1039.26-241.96-2071.99,12.98-2164.14,36.21V411.14Z"/>
              <path class="cls-17" d="M2266.23,960.38c-.72,0-1.42-.24-2-.69-.79-.62-1.25-1.56-1.25-2.57V411.15c0-1.28.75-2.44,1.92-2.97,126.91-57.19,290.61-97.46,486.54-119.71,156.63-17.79,334.11-24.17,527.53-18.95,329.26,8.88,594.13,48.85,596.76,49.25.73.11,1.39.46,1.89,1l555.13,598.93c.97,1.05,1.14,2.61.43,3.84-.72,1.24-2.17,1.85-3.55,1.53-237.82-55.36-494.53-88.88-763.02-99.6-217.66-8.69-444.15-2.53-673.19,18.33-378.31,34.45-651.65,98.62-726.41,117.46-.26.07-.53.1-.8.1ZM2269.49,413.25v539.71c80.29-20.06,351.1-82.72,723.36-116.62,229.32-20.89,456.09-27.06,674.04-18.35,265.02,10.59,518.6,43.34,753.91,97.38l-547.16-590.33c-19.12-2.85-276.94-40.44-594.92-49.01-193.1-5.21-370.27,1.16-526.59,18.91-194.25,22.06-356.62,61.87-482.64,118.32Z"/>
            </g>
            <path class="cls-4" d="M2266.23,418.31c555.05-250.11,1609.01-96.32,1609.01-96.32l523.58,564.89c-1043.12-201.67-2040.43,47.03-2132.58,70.25V418.31Z"/>
            <g>
              <path class="cls-12" d="M2266.23,432.51c561.83-244.06,1646.91-89.1,1646.91-89.1l491.99,524.09c-1154.78-198.89-2045.61,84.46-2138.89,107.13V432.51Z"/>
              <path class="cls-17" d="M2266.23,977.88c-.72,0-1.43-.24-2.01-.7-.78-.62-1.24-1.56-1.24-2.56V432.51c0-1.3.77-2.47,1.96-2.98,128.45-55.8,295.09-95.21,495.29-117.14,160.04-17.53,341.8-23.99,540.22-19.21,337.78,8.15,610.43,46.62,613.15,47,.73.1,1.4.46,1.91.99l491.98,524.08c.96,1.02,1.16,2.54.49,3.77-.66,1.23-2.04,1.91-3.42,1.66-453.96-78.18-919.94-91.41-1385.01-39.31-368.91,41.32-624.9,111.57-721.27,138.02-14.34,3.93-24.7,6.78-31.29,8.38-.25.06-.51.09-.77.09ZM2269.49,434.65v535.82c6.45-1.66,15.45-4.13,27.08-7.32,96.51-26.48,352.86-96.83,722.27-138.22,462.41-51.8,925.75-39.1,1377.29,37.74l-484.57-516.18c-19.51-2.71-284.98-38.92-611.33-46.78-198.12-4.77-379.57,1.68-539.32,19.18-198.52,21.74-363.84,60.69-491.42,115.78Z"/>
            </g>
            <path class="cls-4" d="M2266.23,432.51c561.83-244.06,1646.91-89.1,1646.91-89.1l454.16,483.79c-1154.78-198.89-2007.79,124.76-2101.07,147.42V432.51Z"/>
            <g>
              <path class="cls-12" d="M2266.23,418.89c561.83-244.06,1712.79-52.76,1712.79-52.76l405.89,444.56c-1154.78-198.89-2025.4,127.65-2118.68,150.32V418.89Z"/>
              <path class="cls-17" d="M2266.23,964.27c-.72,0-1.43-.24-2.01-.7-.78-.62-1.24-1.56-1.24-2.56V418.89c0-1.3.77-2.47,1.96-2.98,128.47-55.81,298.6-93.31,505.66-111.46,165.51-14.51,354.89-16.77,562.88-6.7,354.06,17.13,643.2,64.7,646.08,65.18.72.12,1.38.48,1.87,1.02l405.89,444.56c.94,1.03,1.12,2.53.45,3.75-.67,1.22-2.03,1.89-3.41,1.64-443.25-76.34-896.31-84.42-1346.59-24.03-360.24,48.32-614.8,126.8-723.49,160.31-22.26,6.86-38.34,11.82-47.28,13.99-.25.06-.51.09-.77.09ZM2269.49,421.03v535.79c9.25-2.48,23.78-6.96,42.88-12.85,108.86-33.56,363.77-112.15,724.55-160.54,447.76-60.06,898.29-52.5,1339.22,22.47l-398.74-436.74c-19.96-3.25-301.69-48.35-644.29-64.92-207.68-10.05-396.75-7.79-561.96,6.7-205.3,18-374.05,55.04-501.64,110.1Z"/>
            </g>
            <path class="cls-4" d="M2656.39,810.73c84.18-65.2,178.09-116.99,273.84-163.03,109.95-52.87,222.35-101.63,337.36-142.38,129.98-46.05,263.24-82.4,398.05-111.22,74.12-15.84,148.69-29.37,223.53-41.27-281.55-38.82-1155.83-136.83-1622.94,66.08v542.12c30.29-7.36,142.59-46.77,319.96-89.82,22.28-21.52,45.91-41.65,70.2-60.46Z"/>
            <path class="cls-4" d="M2266.23,952.06v8.95c2.68-.65,6.03-1.56,9.98-2.7-3.32-2.1-6.65-4.17-9.98-6.25Z"/>
            <path class="cls-1" d="M2329.94,920.7c59.18-26.73,120.37-48.73,181.8-69.69,69.76-23.8,139.52-47.49,210.36-67.91,82.51-23.78,165.94-44.33,249.82-62.66,166.84-36.46,335.4-68.23,505.55-84.15,86.33-8.07,173.01-12.46,259.72-12.97,85.54-.5,170.71,4.02,256.05,9.44,84.64,5.37,169.9,12.8,253.83,26.94l-268.04-293.58s-1150.95-191.29-1712.79,52.76v529.41c1.05.66,2.1,1.32,3.16,1.98,19.87-10.63,40.18-20.39,60.55-29.58Z"/>
          </g>
          <g>
            <path class="cls-12" d="M2266.23,957.13s359.61-286.77,1047.25-415.63c687.64-128.87,988.28-22,988.28-22l-441.37-487.19s-1067.84-185.26-1594.16,378.84v545.98Z"/>
            <path class="cls-17" d="M2266.23,960.38c-.48,0-.96-.1-1.41-.32-1.12-.54-1.84-1.68-1.84-2.93V411.15c0-.82.31-1.62.87-2.22,120.41-129.05,279.35-229.32,472.42-298.02,154.33-54.92,330.69-89.9,524.17-103.97,329.34-23.95,597.83,21.69,600.5,22.16.71.12,1.37.48,1.85,1.02l441.37,487.19c1,1.11,1.12,2.75.3,3.99-.82,1.24-2.38,1.77-3.79,1.26-.75-.27-76.87-26.75-235.85-37.17-146.76-9.63-396.12-7.15-750.74,59.31-354.84,66.5-620.37,175.84-780.63,255.86-173.54,86.64-264.29,158.41-265.19,159.13-.59.47-1.3.71-2.03.71ZM2269.49,412.43v538.1c21.76-16.41,110.4-80.59,261.06-155.8,160.64-80.2,426.76-189.79,782.34-256.43,355.54-66.63,605.62-69.06,752.81-59.38,124.83,8.22,198.93,26.34,225.71,33.99l-432.67-477.58c-19.09-3.17-280.11-45.01-597.97-21.88-192.88,14.04-368.64,48.9-522.4,103.62-191.57,68.18-349.32,167.55-468.89,295.36Z"/>
          </g>
          <path class="cls-7" d="M4216.34,480.08c-65.42-11.47-131.84-18.29-198.12-22.26-131.74-7.89-265.05-4.91-396.57,5.7-131.73,10.62-262.43,31.74-391.66,59.13-64.15,13.6-127.96,28.75-191.49,44.98-51.1,13.06-102.49,25.89-152.96,41.25-64.83,19.74-129.08,42.46-196.53,51.65-54.09,7.37-129.97,8.63-157.55-49.29-17-35.7-14.78-81.27-6.99-118.98,9.75-47.18,31.21-91.5,57.5-131.59,53.13-81.04,125.96-147.03,209.48-195.53,105.07-61.02,220.58-102.06,337.95-132.13,27.6-7.07,55.46-13.14,83.42-18.88-322.47,29.68-695.95,128.36-946.61,397.02v545.98s359.61-286.77,1047.25-415.63c687.64-128.87,988.28-22,988.28-22l-24.35-26.87c-20.3-4.84-40.73-8.97-61.07-12.54Z"/>
          <path class="cls-4" d="M2597.01,755.61c-57.04,21.02-113.7,43.74-172.64,59.03-18.39,4.77-38.57,7.98-57.3,3.18-13.64-3.49-25.03-11.79-32.78-23.51-8.64-13.06-12.72-28.76-15.33-44.02-3.83-22.4-4.76-45.3-5.43-67.96-1.87-62.87,2.11-125.82,10.49-188.14,3.19-23.72,7.42-47.13,14.54-70.02,6.38-20.5,14.7-40.4,24.89-59.29,19.64-36.44,46.15-68.76,76.55-96.74,9.47-8.72,19.34-16.98,29.45-24.94-73.38,46.82-141.97,102.29-203.21,167.93v545.98s147.8-117.85,435.07-236.41c-35.07,10.7-69.89,22.22-104.29,34.9Z"/>
        </g>
      </g>
    </g>
  </g>
</svg>