<?xml version="1.0" encoding="UTF-8"?>
<svg xmlns="http://www.w3.org/2000/svg" xmlns:xlink="http://www.w3.org/1999/xlink" viewBox="0 0 362.56 299.36">
  <defs>
    <style>
      .cls-1 {
        fill: url(#linear-gradient-13);
      }

      .cls-2 {
        fill: url(#linear-gradient-2);
      }

      .cls-3 {
        fill: url(#linear-gradient-10);
      }

      .cls-4 {
        fill: url(#linear-gradient-12);
      }

      .cls-5 {
        fill: url(#linear-gradient-15);
      }

      .cls-5, .cls-6, .cls-7, .cls-8, .cls-9, .cls-10, .cls-11, .cls-12, .cls-13, .cls-14, .cls-15 {
        mix-blend-mode: overlay;
        opacity: .5;
      }

      .cls-6 {
        fill: url(#linear-gradient-23);
      }

      .cls-16 {
        fill: #8317ff;
      }

      .cls-7 {
        fill: url(#linear-gradient-18);
      }

      .cls-17 {
        fill: none;
      }

      .cls-18 {
        fill: url(#linear-gradient-4);
      }

      .cls-19 {
        fill: url(#linear-gradient-3);
      }

      .cls-20 {
        fill: url(#linear-gradient-5);
      }

      .cls-21 {
        isolation: isolate;
      }

      .cls-22 {
        fill: url(#linear-gradient-8);
      }

      .cls-8 {
        fill: url(#linear-gradient-19);
      }

      .cls-9 {
        fill: url(#linear-gradient-20);
      }

      .cls-10 {
        fill: url(#linear-gradient-14);
      }

      .cls-23 {
        fill: url(#linear-gradient-7);
      }

      .cls-24 {
        fill: url(#linear-gradient-9);
      }

      .cls-25 {
        fill: url(#linear-gradient-11);
      }

      .cls-26 {
        fill: url(#linear-gradient-6);
      }

      .cls-11 {
        fill: url(#linear-gradient-17);
      }

      .cls-27 {
        fill: #a31a1a;
      }

      .cls-12 {
        fill: url(#linear-gradient-16);
      }

      .cls-28 {
        fill: url(#linear-gradient);
      }

      .cls-13 {
        fill: url(#linear-gradient-21);
      }

      .cls-14 {
        fill: url(#linear-gradient-22);
      }

      .cls-29 {
        fill: #beac83;
        stroke: #000;
        stroke-miterlimit: 10;
        stroke-width: .75px;
      }

      .cls-30 {
        fill: #4e00b9;
      }

      .cls-15 {
        fill: url(#linear-gradient-24);
      }
    </style>
    <linearGradient id="linear-gradient" x1="212.73" y1="49.27" x2="257.65" y2="73.97" gradientUnits="userSpaceOnUse">
      <stop offset="0" stop-color="#ebc2a1"/>
      <stop offset="1" stop-color="#ef8259"/>
    </linearGradient>
    <linearGradient id="linear-gradient-2" x1="203.4" y1="31.33" x2="305.2" y2="109.85" gradientUnits="userSpaceOnUse">
      <stop offset="0" stop-color="#323a57"/>
      <stop offset="1" stop-color="#262c43"/>
    </linearGradient>
    <linearGradient id="linear-gradient-3" x1="178.79" y1="62.94" x2="280.72" y2="141.56" xlink:href="#linear-gradient-2"/>
    <linearGradient id="linear-gradient-4" x1="179.84" y1="182.51" x2="272.73" y2="264.65" gradientUnits="userSpaceOnUse">
      <stop offset="0" stop-color="#61bda4"/>
      <stop offset=".52" stop-color="#4aae97"/>
      <stop offset="1" stop-color="#34a38d"/>
    </linearGradient>
    <linearGradient id="linear-gradient-5" x1="228.94" y1="67.08" x2="261.72" y2="88.55" xlink:href="#linear-gradient"/>
    <linearGradient id="linear-gradient-6" x1="241.98" y1="113.26" x2="335.04" y2="195.55" xlink:href="#linear-gradient-4"/>
    <linearGradient id="linear-gradient-7" x1="257.57" y1="167.01" x2="309.13" y2="210.49" xlink:href="#linear-gradient"/>
    <linearGradient id="linear-gradient-8" x1="140.02" y1="173.43" x2="126.54" y2="202.44" xlink:href="#linear-gradient"/>
    <linearGradient id="linear-gradient-9" x1="170.36" y1="117.58" x2="171.31" y2="152.41" gradientUnits="userSpaceOnUse">
      <stop offset="0" stop-color="#eaddc4"/>
      <stop offset="1" stop-color="#ddc7ae"/>
    </linearGradient>
    <linearGradient id="linear-gradient-10" x1="166.58" y1="130.24" x2="212.52" y2="205.02" gradientUnits="userSpaceOnUse">
      <stop offset="0" stop-color="#eeb947"/>
      <stop offset="1" stop-color="#dc8a1b"/>
    </linearGradient>
    <linearGradient id="linear-gradient-11" x1="164.99" y1="102.26" x2="184.63" y2="172.4" xlink:href="#linear-gradient-10"/>
    <linearGradient id="linear-gradient-12" x1="147.49" y1="260.59" x2="153.2" y2="316.18" xlink:href="#linear-gradient"/>
    <linearGradient id="linear-gradient-13" x1="118.02" y1="205.22" x2="106.19" y2="300.66" xlink:href="#linear-gradient"/>
    <linearGradient id="linear-gradient-14" x1="177.94" y1="-4.29" x2="219.11" y2="139.58" gradientUnits="userSpaceOnUse">
      <stop offset="0" stop-color="#000"/>
      <stop offset="1" stop-color="#000" stop-opacity="0"/>
    </linearGradient>
    <linearGradient id="linear-gradient-15" x1="171.47" y1="132.73" x2="214.09" y2="245.86" xlink:href="#linear-gradient-14"/>
    <linearGradient id="linear-gradient-16" x1="241.82" y1="-22.38" x2="283" y2="121.56" xlink:href="#linear-gradient-14"/>
    <linearGradient id="linear-gradient-17" x1="237.01" y1="108.76" x2="279.4" y2="221.31" xlink:href="#linear-gradient-14"/>
    <linearGradient id="linear-gradient-18" x1="148.01" y1="126.07" x2="179.83" y2="188.47" xlink:href="#linear-gradient-14"/>
    <linearGradient id="linear-gradient-19" x1="194.76" y1="219.23" x2="218.96" y2="270.84" xlink:href="#linear-gradient-14"/>
    <linearGradient id="linear-gradient-20" x1="154.45" y1="193.48" x2="173.64" y2="229.42" xlink:href="#linear-gradient-14"/>
    <linearGradient id="linear-gradient-21" x1="290.78" y1="120.31" x2="284.06" y2="157.45" xlink:href="#linear-gradient-14"/>
    <linearGradient id="linear-gradient-22" x1="209.07" y1="1.71" x2="220.99" y2="87.6" xlink:href="#linear-gradient-14"/>
    <linearGradient id="linear-gradient-23" x1="227" y1="57.9" x2="223.74" y2="87.02" xlink:href="#linear-gradient-14"/>
    <linearGradient id="linear-gradient-24" x1="227.95" y1="53.82" x2="214.7" y2="115.21" xlink:href="#linear-gradient-14"/>
  </defs>
  <g class="cls-21">
    <g id="Layer_2">
      <g id="Layer_1-2" data-name="Layer_1">
        <g>
          <g>
            <path class="cls-16" d="M199.49,147.54c55.4-65.87,145.18-47.83,159.57-.64,14.39,47.19-13.04,130.96-130.1,122.24-65.19-4.85-59.99-85.31-29.47-121.6Z"/>
            <path class="cls-30" d="M339.17,120.14c-33.13-24.29-96.73-23.66-139.69,27.41-16.35,19.44-25.43,51.57-20.31,77.95,26.98-9.22,64.93-20.41,96.12-22.84,52.92-4.13,7.45-99.73,63.88-82.52Z"/>
          </g>
          <g>
            <path class="cls-28" d="M235.01,56.49c.13-1.23.23-2.52.29-3.85.08-1.51.11-3.08.08-4.69.24-.02.47-.04.71-.08,3.9-.64,6.54-4.29,5.89-8.14-.53-3.12-3.05-5.43-6.06-5.84-1.55,2.23-3.54,4.25-5.58,6.04-4.67,3.94-10.25,6.72-16.39,5.94-11.37-1.45-19.66-14.18-23.97-24.75-.79,1.84-1.5,4.37-2.04,7.83-2.14,13.62,3.94,25.42,1.37,28.89-.03.04-.05.07-.08.11,4.71,6.34,13.07,14.44,15.37,15.52,1.91.9,5.51.89,9.59.03,9.09-1.92,19.88-7.89,20.83-17.01Z"/>
            <path class="cls-2" d="M189.23,57.95c-.06-.08-.12-.16-.18-.25l.27.14c2.57-3.48-3.51-15.27-1.37-28.89.54-3.46,1.26-5.99,2.04-7.83,4.3,10.54,12.59,23.3,23.97,24.75,6.14.78,11.72-2,16.39-5.94,2.03-1.79,4.03-3.82,5.58-6.04,3.01.42,5.54,2.72,6.06,5.84.65,3.85-1.99,7.5-5.89,8.14-.24.04-.48.07-.71.08.02,1.61,0,3.17-.08,4.69,1.44,3.09,3.12,7.01,4.15,10.38,1.09.23,11.13,6.82,23.39,9.66,12.26,2.83,24.22,9.55,27.32,18.74,2.25,6.66,6.59,20.45,9.09,28.15,4.74-4.73,6.92-12.19,5.09-20.85-4.58-21.6-27.32-33.42-40.03-39.47-12.7-6.05-17.72-28.1-25.64-44.88-7.92-16.78-20.29-16.35-41.85-11.24-21.56,5.11-25.85,18.53-27.18,38.53-1.07,16.08,6.46,17.81,13.06,17.57,1.61-.06,3.16-.23,4.52-.35.93-.08,1.58-.4,2.01-.91Z"/>
            <path class="cls-19" d="M201.55,89.08c9.76-5.1,14.33-8.9,16.45-11.47-.13-.12-.25-.25-.37-.37-1.38-1.39-2.59-2.75-3.45-3.74-4.08.86-7.68.87-9.59-.03-2.3-1.08-10.66-9.18-15.37-15.52-.43.52-1.08.84-2.01.91-1.36.11-2.91.29-4.52.35-.04,7.36,1.07,21.65,6.48,28.14,2.81,3.38,6.79,4.64,12.37,1.73Z"/>
            <g>
              <path class="cls-17" d="M281.45,161.17c-.92-3.44-5.88-16.05-8.99-23.48-.74.17-1.44.31-2.09.42-9.44,1.53-4.64,8.92-13.61,26.32,22.79-1.74,25.88,1.18,24.69-3.26Z"/>
              <path class="cls-18" d="M147.2,202.26c5.17-3.58,28.63-5.66,36.44-.06,2.72,1.95,4.44,4.47,5.39,7.33,4.62-2.11,11.12-3.57,18.88-1.21,15.02,4.58,29.88,15.22,25.5,29.79,1.12.21,1.82.31,2,.28,2.39-.44,5.36-5.69,10.68-22.55,3.32-10.52,1.89-19.42,2.99-29.3-6.05-.57-10.81-1.17-13.25-1.13-9.08.15-10.93,1.31-14.25,1.39s-17.87,1.24-23.04-2.19c-.88-.58-1.64-1.08-2.34-1.53-8.11,4.77-16.27,8.47-21.11,7.69-9.69-1.55-22.41-6.23-27.36-8.15-.08.04-.16.08-.24.12-3.14,7.1-5.09,14.29-6.4,20.17-.31,1.39.52,2.9,2.24,4.48,1.04-2.28,2.3-4.04,3.89-5.14Z"/>
              <path class="cls-20" d="M228.13,67.33c-3.97,3.02-9.14,5.15-13.95,6.17.85.98,2.07,2.34,3.45,3.74.12.12.25.25.37.37,1.23,1.22,2.56,2.44,3.85,3.44,2.34,1.79,7.78-.57,12.17-4.11,3.65-2.94,6.57-6.69,6.37-9.54-.28-4.01-3.39-11.11-5.09-14.77-.26,5.17-.54,9.65-7.18,14.69Z"/>
              <path class="cls-26" d="M204.7,123.2c.91-.38,1.58-.64,1.89-.74,3.05-.99,6.04-.33,7.44,1.86.04.07.09.17.14.3.85,2.26,2.75,13.8,4.34,24.09.06.02.11.04.17.06,12.26,4.83,8.71,3.64,13,8.74,4.28,5.11,4.87,8.76,16.25,7.74,3.24-.35,6.17-.62,8.84-.82,8.97-17.41,4.17-24.79,13.61-26.32,7.09-1.15,19.88-6.48,26.35-9.94,2.83-1.51,4.59-2.73,4.37-3.2-.2-.44-.89-2.49-1.84-5.42-2.5-7.7-6.84-21.48-9.09-28.15-3.1-9.19-15.07-15.91-27.32-18.74-12.26-2.83-22.3-9.43-23.39-9.66.5,1.65.85,3.17.94,4.39.2,2.85-2.72,6.6-6.37,9.54-4.39,3.54-9.83,5.9-12.17,4.11-1.3-1-2.63-2.22-3.85-3.44-2.12,2.57-6.69,6.36-16.45,11.47-5.58,2.92-9.56,1.65-12.37-1.73-2.29,1.01-4.09,1.94-5.13,2.71-5.76,4.27-5.76,11.49-5.1,25.07.25,5.09.56,8.24.96,10.95,5.48-3.89,11.97-7.86,17.98-8.87,2.86-.19,5.15,2.71,6.81,5.99Z"/>
              <path class="cls-23" d="M281.45,161.17c1.19,4.44-1.9,1.52-24.69,3.26-2.67.2-5.6.47-8.84.82-11.37,1.02-11.96-2.63-16.25-7.74-4.28-5.11-.74-3.91-13-8.74-.06-.02-.12-.04-.17-.06-12.1-4.65-14.15,6.11-14.15,6.11,0,0-7.09-.8-14.4-1.61-3.03-.33-6.01-.91-8.44-1.13-3.05-.28-5.24.01-5.51,2.08-.03.26-.04.55-.01.88.44,4.89,18.76,6.93,20.9,9.78,0,0-14.92.22-20.53-1.09-5.61-1.31-5.69,1.75-2.95,4.16,2.73,2.41,3.77,2.34,6.72,3.65,2.95,1.31,3.25,3.94,7.46,6.42,3.5,2.06,5.16,2.92,8.59,5.11.7.45,1.46.95,2.34,1.53,5.17,3.43,19.72,2.26,23.04,2.19s5.17-1.24,14.25-1.39c2.44-.04,7.2.56,13.25,1.13,16.45,1.56,44.62,6.77,60.6-5.07,2.91-2.36-7.64-35.85-12.93-53.28-6.07,3.24-17.08,7.84-24.27,9.52,3.11,7.43,8.07,20.04,8.99,23.48Z"/>
              <path class="cls-29" d="M143.4,165.57c-.15.01-.23.02-.23.02.08,0,.15-.02.23-.02Z"/>
              <path class="cls-22" d="M152.33,177.85c-.6-1.21-.61-2.26-.47-3.53.16-1.38.5-3,.47-5.34-.05-4.07-7.52-3.55-8.93-3.42-.08,0-.15.02-.23.02,0,0,.08,0,.23-.02,5.55-.43,10.38-4.83,8.52-7.42-1.19-1.67-8.5-1.44-14.16-.24-3.26.69-5.98,1.7-6.67,2.86-1.88,3.17,2.41,6.45,2.33,6.79-1.44,5.47,3.54,16.75,6.98,17.18,1.58.2,4.5-.71,7.07-2,.08-.04.16-.08.24-.12,2.9-1.5,5.27-3.45,4.61-4.77Z"/>
              <path class="cls-24" d="M181.16,133.18c8.97-3.72,19.22-8.2,23.54-9.98-1.66-3.28-3.95-6.19-6.81-5.99-6.02,1.02-12.51,4.98-17.98,8.87-6.32,4.49-11.28,8.88-12.59,8.53-2.44-.66-22.82-14.34-25.79-13.46-1.84.54-3.84,3.05-5.12,5.01,7.69,3.35,26.42,12.63,29.13,12.72,1.37.04,8.03-2.55,15.61-5.7Z"/>
              <path class="cls-3" d="M151.92,158.15c1.86,2.59-2.97,6.99-8.52,7.42,1.41-.13,8.88-.65,8.93,3.42.03,2.34-.31,3.96-.47,5.34-.14,1.26-.13,2.32.47,3.53.66,1.32-1.71,3.27-4.61,4.77,4.95,1.91,17.67,6.59,27.36,8.15,4.84.78,13-2.93,21.11-7.69-3.42-2.19-5.09-3.05-8.59-5.11-4.21-2.48-4.5-5.11-7.46-6.42-2.95-1.31-3.99-1.24-6.72-3.65-2.73-2.41-2.66-5.47,2.95-4.16,5.61,1.31,20.53,1.09,20.53,1.09-2.14-2.85-20.46-4.89-20.9-9.78-.03-.32-.02-.61.01-.88.27-2.07,2.45-2.36,5.51-2.08,2.43.22,5.41.8,8.44,1.13,7.31.8,14.4,1.61,14.4,1.61,0,0,2.05-10.76,14.15-6.11-1.59-10.29-3.49-21.83-4.34-24.09-1.89,1.01-4.46,2.23-7.42,3.56-7.16,3.21-16.66,7.06-24.73,10.06-7.65,2.84-14.03,4.93-15.91,4.98-4.3.12-21.07-7.5-30.96-11.88-2.33-1.03-4.28-1.89-5.6-2.42.12,1.28,4.19,15.58,8.22,28.99,5.66-1.2,12.96-1.43,14.16.24Z"/>
              <path class="cls-25" d="M166.1,143.22c1.89-.05,8.26-2.13,15.91-4.98,8.08-3,17.57-6.85,24.73-10.06,2.97-1.33,5.53-2.55,7.42-3.56-.05-.13-.1-.24-.14-.3-1.4-2.19-4.39-2.85-7.44-1.86-.31.1-.98.36-1.89.74-4.32,1.78-14.57,6.26-23.54,9.98-7.58,3.14-14.24,5.74-15.61,5.7-2.71-.09-21.44-9.37-29.13-12.72-1.73-.75-2.91-1.21-3.21-1.19-1.66.11-3.88,1.54-3.66,3.95,1.31.53,3.26,1.38,5.6,2.42,9.89,4.38,26.66,12,30.96,11.88Z"/>
              <path class="cls-4" d="M207.9,208.31c-7.75-2.36-14.26-.9-18.88,1.21,1.61,4.88.95,10.77-1.05,16.65-2.9,8.51-8.58,16.98-14.19,22.27-5.73,5.41-10.89,7.24-15.23,7.29-.27-.12-.54-.23-.81-.34-3.21-1.41-6.45-2.48-9.71-3.22-2.89-.66-5.79-1.09-8.69-1.32-19.97-1.54-39.83,6.45-54.57,11.5-2.26.77-4.41,1.48-6.41,2.07-8.62,2.55-13.64,6.13-16.21,9.66-3.18,4.36-2.61,8.62-.4,10.7,3.08,2.05,11.03,2.88,21.37,2.98,32.06.29,87.12-6.58,91.61-6.77.1,0,.18,0,.23,0,.21-.01.45-.05.68-.07,14.62-1.54,50.23-24.98,56.93-40.5.34-.79.61-1.56.84-2.32,4.38-14.57-10.49-25.21-25.5-29.79Z"/>
              <path class="cls-27" d="M37.09,269.14c-.9-5.53,3.52-13.71,12.7-17.34,3.22-1.27,6.65-2.95,10.55-4.93-1.58-2.05-4.18-4.44-7.97-5-6.94-1.02-14.47-2.63-18.02,0-3.54,2.63-6.5,8.32-13.59,13.28-7.09,4.96-23.48,16.64-20.38,28.46,2.43,9.27,7.35,9.74,19.25,3.74.89-4.12,2.93-8.51,5.56-11.77,2.9-3.6,7.13-5.19,11.89-6.45Z"/>
              <path class="cls-1" d="M103.77,227.87c-20.48,7.02-33.48,13.97-43.43,19.01-3.9,1.97-7.33,3.65-10.55,4.93-9.19,3.63-13.6,11.81-12.7,17.34,5.67-1.5,12.09-2.54,17.95-5.95,1.82-1.06,3.5-1.99,5.1-2.82,7.85-4.08,13.18-5.25,18.09-2.58,2.39,1.3,4.67,3,6.55,4.57,14.74-5.05,34.61-13.04,54.57-11.5,2.9.22,5.8.66,8.69,1.32,3.26.75,6.51,1.81,9.71,3.22.27.12.54.22.81.34,4.33-.05,9.5-1.88,15.23-7.29,5.61-5.29,11.29-13.76,14.19-22.27,2-5.88,2.67-11.78,1.05-16.65-.95-2.86-2.67-5.38-5.39-7.33-7.8-5.6-31.27-3.51-36.44.06-1.59,1.1-2.85,2.86-3.89,5.14-1.54,3.38-2.57,7.93-3.38,13.24-7.54.2-19.83,1.64-36.15,7.24Z"/>
              <path class="cls-27" d="M62.16,274.09c2.57-3.52,7.59-7.11,16.21-9.66,2-.59,4.15-1.3,6.41-2.07-1.88-1.57-4.17-3.27-6.55-4.57-4.91-2.67-10.24-1.49-18.09,2.58-1.59.83-3.28,1.76-5.1,2.82-10.73,6.25-23.5,4.54-29.83,12.41-2.63,3.26-4.67,7.65-5.56,11.77-1.26,5.82-.19,11.1,4.82,11.87,8.57,1.31,26.88-8.32,46.23-8.46,4.96-.04,9.12-1.2,12.43-3.01-10.34-.09-18.29-.93-21.37-2.98-2.2-2.08-2.78-6.35.4-10.7Z"/>
            </g>
            <path class="cls-10" d="M201.55,89.08c9.76-5.1,14.33-8.9,16.45-11.47-.13-.12-.25-.25-.37-.37-1.38-1.39-2.59-2.75-3.45-3.74-4.08.86-7.68.87-9.59-.03-2.3-1.08-10.66-9.18-15.37-15.52-.43.52-1.08.84-2.01.91-1.36.11-2.91.29-4.52.35-.04,7.36,1.07,21.65,6.48,28.14,2.81,3.38,6.79,4.64,12.37,1.73Z"/>
            <path class="cls-5" d="M147.2,202.26c5.17-3.58,28.63-5.66,36.44-.06,2.72,1.95,4.44,4.47,5.39,7.33,4.62-2.11,11.12-3.57,18.88-1.21,15.02,4.58,29.88,15.22,25.5,29.79,1.12.21,1.82.31,2,.28,2.39-.44,5.36-5.69,10.68-22.55,3.32-10.52,1.89-19.42,2.99-29.3-6.05-.57-10.81-1.17-13.25-1.13-9.08.15-10.93,1.31-14.25,1.39s-17.87,1.24-23.04-2.19c-.88-.58-1.64-1.08-2.34-1.53-8.11,4.77-16.27,8.47-21.11,7.69-9.69-1.55-22.41-6.23-27.36-8.15-.08.04-.16.08-.24.12-3.14,7.1-5.09,14.29-6.4,20.17-.31,1.39.52,2.9,2.24,4.48,1.04-2.28,2.3-4.04,3.89-5.14Z"/>
            <path class="cls-12" d="M238.97,29.49c-.77,1.37-3.05,4.4-3.05,4.4,3.01.42,5.54,2.72,6.06,5.84.65,3.85-1.99,7.5-5.89,8.14-.24.04-.48.07-.71.08.02,1.61,0,3.17-.08,4.69,1.44,3.09,3.12,7.01,4.15,10.38,1.09.23,11.13,6.82,23.39,9.66,12.26,2.83,24.22,9.55,27.32,18.74,2.25,6.66,6.59,20.45,9.09,28.15,4.74-4.73,6.92-12.19,5.09-20.85-3.31-15.63-16.15-26.14-27.8-33.05-6.56-1.94-12.58-3.8-16.88-5.88-14.67-7.1-20.7-30.29-20.7-30.29Z"/>
            <path class="cls-11" d="M235.11,161.85c2.32,2.63,5.06,4.11,12.82,3.41,3.24-.35,6.17-.62,8.84-.82,8.52-16.54,4.62-24.03,12.31-26.05-1.7-4.25-3.99-10.52-5.24-16.38-1.28-5.99-1.43,20.33-28.73,39.83Z"/>
            <path class="cls-7" d="M151.86,174.32c-.14,1.26-.13,2.32.47,3.53.66,1.32-1.71,3.27-4.61,4.77,4.95,1.91,17.67,6.59,27.36,8.15,4.84.78,13-2.93,21.11-7.69-3.42-2.19-5.09-3.05-8.59-5.11-4.21-2.48-4.5-5.11-7.46-6.42-2.95-1.31-3.99-1.24-6.72-3.65-2.73-2.41-2.66-5.47,2.95-4.16,5.61,1.31,20.53,1.09,20.53,1.09-2.14-2.85-20.46-4.89-20.9-9.78-.03-.32-.02-.61.01-.88,0,0-13.02,10.29-24.02,19.16-.05.34-.09.67-.13.99Z"/>
            <path class="cls-8" d="M207.9,208.31c-7.75-2.36-14.26-.9-18.88,1.21,1.61,4.88.95,10.77-1.05,16.65-2.9,8.51-8.58,16.98-14.19,22.27,7.17-5.19,18.49-19.37,24.88-19.14,19.85.71,22.39,10.02,26,22,3.65-3.8,6.45-7.53,7.9-10.89.34-.79.61-1.56.84-2.32,4.38-14.57-10.49-25.21-25.5-29.79Z"/>
            <path class="cls-9" d="M189.02,209.53c-.95-2.86-2.67-5.38-5.39-7.33-7.8-5.6-31.27-3.51-36.44.06-1.59,1.1-2.85,2.86-3.89,5.14-1.14,2.52-2.01,5.68-2.71,9.32,29.16-6.85,43.12.92,48.49,5.56,1.06-4.54,1.19-8.95-.07-12.75Z"/>
            <path class="cls-13" d="M301.62,144.27c-1.76-5.9-3.5-11.54-4.88-16.09-6.07,3.24-17.08,7.84-24.27,9.52,1.61,3.85,3.73,9.1,5.51,13.75,6.28.05,15.82-1.08,23.64-7.17Z"/>
            <path class="cls-14" d="M195.16,52.64c2.06-6.46,21.42-1.51,29.04-5,5.45-2.5,9.42,6.78,8.68,14.72,2.07-3.2,2.23-5.74,2.43-9.72.08-1.51.11-3.08.08-4.69.24-.02.47-.04.71-.08,3.9-.64,6.54-4.29,5.89-8.14-.53-3.12-3.05-5.43-6.06-5.84-1.54,2.22-3.54,4.25-5.58,6.04-4.67,3.94-10.25,6.72-16.39,5.94-11.37-1.45-19.66-14.18-23.97-24.75-.79,1.84-1.5,4.37-2.04,7.83-2.14,13.62,3.94,25.42,1.37,28.89-.03.04-.05.07-.08.11.28.38.58.77.89,1.16,1.96-1.35,4.07-3.43,5.04-6.48Z"/>
            <path class="cls-6" d="M235.31,52.64c-.28,5.54-.84,9.88-7.18,14.69-3.97,3.02-9.14,5.15-13.95,6.17.85.98,2.07,2.34,3.45,3.74.1.1.21.21.31.31,4.9-.13,13.59-2.87,20.02-18.75-.85-2.15-1.79-4.31-2.66-6.17Z"/>
            <path class="cls-15" d="M224.61,94.4c17.43-11.57,29.78-18.89,37.73-21.85-12.03-2.9-21.82-9.31-22.89-9.53.5,1.65.85,3.17.94,4.39.2,2.85-2.72,6.6-6.37,9.54-4.39,3.54-9.83,5.9-12.17,4.11-1.3-1-2.63-2.22-3.85-3.44-2.12,2.57-6.69,6.36-16.45,11.47-5.58,2.92-9.56,1.65-12.37-1.73-2.29,1.01-4.09,1.94-5.13,2.71-1.31.97-2.32,2.1-3.09,3.41,6.56,5.18,23,14.64,43.65.93Z"/>
          </g>
        </g>
      </g>
    </g>
  </g>
</svg>