<?xml version="1.0" encoding="UTF-8"?>
<svg id="Layer_2" xmlns="http://www.w3.org/2000/svg" viewBox="0 0 602.02 555.18">
  <g id="Layer_1-2" data-name="Layer_1">
    <g>
      <path d="M286.46.04c-7.97.47-11.42.7-16.4,1.17-38.94,3.52-78.28,14.71-112.5,31.96-11.09,5.61-22.85,12.42-31.45,18.18-7.04,4.75-9.39,6.36-13.01,9.03-11.42,8.43-22.28,17.71-32.46,27.78-5.85,5.77-6.36,6.34-6.14,7.12.08.31.76,1.49,1.53,2.61,2.97,4.36,59.25,88.95,59.61,89.61.23.42.54.73.71.73.34,0,.37.13-1.33-5.74-3.93-13.56-8.68-34.17-9.87-42.73-.37-2.58-.45-5.95-.45-16.72,0-7.59.11-14.43.28-15.68.71-5.43,2.15-10.43,4.1-14.16,1.84-3.57,3.7-5.82,9.05-10.75,6.82-6.34,9.19-7.83,14.14-9,2.04-.47,3.14-.52,14.51-.52s12.5.05,15.13.55c10.35,1.93,21.04,7.04,32.49,15.52,4.58,3.39,5.37,4.04,13.46,11.16,8.54,7.49,15.07,13.88,21.24,20.71l4.52,5.01.68-.97c1.98-2.9,23.61-36.89,48.27-75.86,23.33-36.83,29.38-46.51,29.58-47.19.14-.6.08-.65-1.36-.81-7.32-.78-12.3-.97-27.09-1.04-8.63-.03-16.4-.03-17.25.03Z"/>
      <path d="M369.77,8.29c-.31.47-12.47,19.41-27.04,42.08-14.59,22.67-30.91,48.08-36.31,56.45-5.37,8.37-9.78,15.39-9.78,15.6,0,.29,1.58.34,8.57.34h8.54l8.34,1.3c4.58.73,11.14,1.8,14.56,2.37,6.87,1.2,8.82,1.43,9.87,1.17.48-.1,1.44-1.07,2.86-2.77,8.91-10.85,27.69-28.36,39.59-36.91,10.01-7.2,19.46-11.76,28.87-13.98,4.5-1.04,7.64-1.2,20.19-1.02,10.63.16,11.26.21,13.01.76,4.41,1.43,6.19,2.66,13.32,9.34,6.22,5.82,7.07,6.76,8.74,10.07,2.8,5.5,3.9,11.63,4.24,23.66.48,16.9-.4,27.7-3.37,40.49l-1.07,4.64h50.87c43.97,0,50.85-.05,50.85-.37,0-.57-7.01-13.43-10.24-18.76-9.64-15.96-20.45-30.44-33.06-44.29-12.84-14.11-28.93-28.33-45.5-40.28-32.83-23.61-70.81-40.75-111.05-50.06-3.85-.91-4.36-.89-5.01.16Z"/>
      <path d="M162.74,88.84c-3.08.44-5.32,1.25-8,2.87-1.44.86-3.28,2.19-4.07,2.92-3.9,3.78-6.96,10.62-8.34,18.78-.71,4.2-.71,14.43,0,19.12,1.02,6.55,5.46,26.4,8.14,36.23,2.66,9.78,8.37,26.16,9.02,25.93.11-.05,1.27-1.3,2.57-2.82,2.86-3.29,8.09-8.19,11-10.33,1.16-.83,2.23-1.7,2.35-1.85.23-.37,1.16-.47.99-.16-.54,1.02-1.41,2.97-5.77,12.86-10.44,23.63-13.8,32.4-17.36,45.26-3.25,11.61-4.78,20.97-5.4,32.69-.85,16.49,1.75,32.22,7.58,45.83,8.34,19.49,23.61,36.78,46.58,52.69,5.74,3.97,12.44,8.22,12.95,8.22.23,0,1.36-1.59,2.52-3.57,5.18-8.84,9.98-14.56,19.91-23.69,8.82-8.11,11.4-10.98,13.8-15.39,3.45-6.36,3.9-13.38,1.5-24.21-.37-1.7-.88-3.29-1.13-3.55-.4-.42-1.13-.5-5.63-.63-7.41-.21-12.44-1.17-17.42-3.34-5.85-2.53-10.04-6.1-14.56-12.39-1.02-1.43-2.57-3.34-3.45-4.23-1.7-1.75-4.72-3.73-6.73-4.41-.71-.26-1.3-.52-1.3-.6,0-.18,5.54-2.4,8.48-3.37,1.3-.44,3.99-1.2,5.94-1.67,3.34-.78,3.79-.83,8.48-.83,4.38.03,5.34.1,8.34.76,1.87.39,3.53.76,3.68.76.17.03.34-2.32.45-6.34.17-6.73.4-8.27,1.84-12.21,1.5-4.17,5.29-9.96,12.61-19.36,1.61-2.09,3.68-4.72,4.55-5.87s1.87-2.37,2.21-2.74c.31-.37,1.56-2.03,2.8-3.7,3.76-5.22,6.28-10.17,7.47-14.79.48-1.8.79-2.53,1.13-2.58.57-.1.57.65.17,6.34-.51,7.04-1.41,10.59-3.87,15.13-2.06,3.78-3.31,5.61-6.33,9.31-7.86,9.57-11.57,17.74-12.41,27.42-.68,8.01,1.33,17.61,5.4,25.69,3.53,6.99,6.05,14.45,7.66,22.62.88,4.49.9,12.7.03,16.33-.82,3.37-1.56,5.35-3.2,8.5-2.66,5.17-5.94,9.03-12.19,14.43-13.18,11.32-17.73,16.54-21.21,24.42-2.57,5.79-3.53,11.03-3.28,18.05.28,8.03,2.49,14.69,6.98,21.05,7.61,10.72,18.95,17.14,34.08,19.36,3.9.57,13.52.63,17.25.13,6.14-.86,15.07-3,16.57-3.99,1.24-.81,1.5-1.96,1.1-4.83-1.44-10.75-8.2-19.56-18.64-24.39-2.83-1.3-5.71-2.17-9.5-2.84-1.7-.31-3.39-.68-3.73-.81l-.62-.21.54-1.46c1.39-3.76,3.87-6.68,6.59-7.85,4.44-1.85,7.97-1.46,20.5,2.4l6.39,1.98,2.83-.1c2.71-.1,3.11-.21,7.81-1.9,7.18-2.56,10.58-3.34,14.99-3.37,3.45-.03,3.59,0,5.43.83,2.63,1.2,4.47,3.13,6.25,6.55,1.7,3.29,1.81,3.13-2.77,3.91-3.76.65-6.7,1.49-9.56,2.74-10.77,4.75-18.07,14.66-19.29,26.16-.17,1.51-.11,2.01.23,2.53.57.78,2.55,1.49,7.52,2.66,6.48,1.54,9.95,1.98,16.91,2.11,6.62.16,9.7-.05,14.62-.99,14.71-2.77,26.7-11.3,33.12-23.58,2.8-5.4,3.76-9.16,4.02-15.68.2-5.3-.2-9.34-1.22-12.55-.42-1.28-.85-2.66-.96-3.08-.99-3.44-2.88-6.96-5.97-11.22-3.2-4.41-6.16-7.43-12.19-12.42-8.82-7.36-13.07-11.84-15.67-16.49-3.31-5.95-4.33-9.63-4.55-16.49-.31-9.55,1.41-17.09,6.87-29.95,5.32-12.5,6.76-17.92,6.73-25.36-.03-6.39-1.1-10.8-4.04-16.43-1.33-2.53-5.91-9.65-10.75-16.7-4.13-6-6.84-11.87-7.81-16.93-.48-2.63-.57-8.79-.11-9.57.4-.7.71-.44.93.81.42,2.53,2.18,6.21,4.75,10.02,1.98,2.9,9.5,13.04,14.31,19.28,10.01,12.94,11.96,17.63,12.64,30.44.11,1.8.31,3.86.45,4.59l.28,1.36,1.22-.34c4.75-1.33,14.76-1.72,20.25-.81,5.6.91,12.44,3.65,12.44,4.96,0,.16-.71.81-1.56,1.43-2.69,1.98-7.52,6.78-10.55,10.51-4.27,5.24-7.3,7.7-11.99,9.73-3.56,1.54-6.53,2.14-15.47,3.1-5.83.63-8.4.99-8.71,1.25-.25.26-.71,2.3-1.22,5.71-1.61,10.17-.99,16.38,2.21,22.28,2.09,3.91,3.31,5.27,12.08,13.3,12.08,11.09,16.91,16.93,21.75,26.22,1.67,3.18,1.56,3.13,3.48,1.96,12.58-7.64,26.84-18.63,34.87-26.87,18.52-18.99,28.22-38.79,30.68-62.74.65-6.29.45-18.7-.4-25.43-3.03-23.63-11.11-47.76-25.59-76.59-2.38-4.72-2.66-5.45-2.21-5.45.37,0,2.35,1.3,4.64,3.05,2.8,2.14,6.02,5.32,9.33,9.21,1.58,1.88,2.71,3.03,2.88,2.87.28-.26,6.08-17.74,9.39-28.25,6.39-20.43,8.29-31.04,7.95-44.4-.23-8.53-1.16-14.16-3.17-19.04-2.77-6.83-8.2-11.61-15.33-13.49-1.87-.5-2.88-.6-6.45-.57-3.68,0-4.67.1-7.49.73-11.65,2.66-21.69,7.77-34.44,17.58-11.59,8.9-23.75,21.34-33.71,34.49-1.13,1.51-2.46,3.13-2.91,3.57-1.64,1.62-1.39,1.62-15.36-.68-31.62-5.22-36.99-6.03-39.56-6.03-1.41,0-5.12.34-8.23.76-6.76.91-27.26,4.25-36.42,5.95-10.46,1.9-10.6,1.85-15.61-4.83-11.48-15.39-23.98-27.57-39.03-38.03-9.28-6.42-19.6-11.14-28.28-12.89-3.2-.63-8.68-.89-11.28-.52Z"/>
      <path d="M48.69,125.8c-5.01,6.91-11.48,17.3-16.6,26.56C13.17,186.82,2.62,223.47.28,263.1c-.37,6.13-.37,23.53,0,29.48,1.36,21.86,4.84,40.88,11.42,62.06,1.19,3.89,1.98,5.97,2.32,6.21.74.5,150.56.5,150.56,0,0-.18-1.36-1.7-3-3.31-8.48-8.48-14.79-16.93-20.08-27-5.12-9.73-8.09-18.76-9.73-29.56-.99-6.5-1.22-11.11-1.24-24.31-.03-13.36.2-18.05,1.27-25.77.79-5.92.79-6.1-.82-8.56-2.57-3.86-79.01-117.36-79.49-117.99-.28-.37-.62-.68-.79-.73-.2-.08-1.07.91-2.01,2.19Z"/>
      <path d="M462.81,194.31c-.42.39-.82,1.36-1.22,2.92-.85,3.34-1.7,5.27-2.83,6.42l-.99.99,2.43,6.73c5.83,16.25,9.05,29.56,10.8,44.29.62,5.24.88,27.63.42,34.67-.4,5.87-1.19,11.84-2.15,16.25-.79,3.6-.85,4.33-.37,5.58.17.5,11.23,18.31,24.55,39.62,13.32,21.31,30.63,49.02,38.46,61.56s14.45,23.03,14.73,23.32.62.39.82.29c.45-.26,7.69-10.41,10.89-15.26,26.58-40.46,40.75-83.24,43.44-131.29.42-7.77.2-27.26-.42-33.83-1.92-20.56-5.54-38.84-11.31-57.23-.85-2.71-1.7-5.01-1.87-5.11-.34-.18-65.3-.52-102-.52h-22.74l-.65.6Z"/>
      <path d="M446.72,350.69c-3.62,4.2-8.26,8.74-17.48,17.14-9.87,9-16.77,14.4-26.5,20.71-2.09,1.36-3.99,2.77-4.24,3.13-.42.57-.51,1.9-.68,10.07-.2,10.28-.25,10.83-2.04,15.39-1.92,4.88-3.9,8.22-7.18,12.1-2.06,2.45-12.73,12.44-15.61,14.63-3.68,2.79-9.08,5.66-13.43,7.12-1.07.37-2.21.73-2.46.83-.28.1-1.07,1.2-1.81,2.45-1.92,3.37-3.08,4.67-9.9,11.06-8.57,8.01-12.9,10.88-21.18,14.03-1.3.5-2.71,1.25-3.31,1.77-.74.65-4.36,6.47-11.99,19.2-6.02,10.04-15.61,26.03-21.35,35.56-5.71,9.52-10.49,17.5-10.58,17.76-.2.63.37.73,6.08,1.04,20.3,1.17,44.29.1,64.9-2.87,34.98-5.03,69.28-15.96,99.83-31.82,5.83-3.03,15.04-8.14,17.53-9.76.93-.6,3.48-2.19,5.66-3.55,16.83-10.46,34.44-24.31,48.67-38.27,2.26-2.22,4.07-4.2,4.07-4.46,0-.39-21.83-34.85-68.61-108.26-2.8-4.38-5.2-7.98-5.4-8.03-.17-.05-1.53,1.28-3,3Z"/>
      <path d="M27.79,393.97c-.2.47,4.95,10.12,9.28,17.3,23.02,38.45,54.24,70.2,93.72,95.34,15.19,9.65,32.61,18.6,49.35,25.36s38.38,13.28,55.37,16.67l3.28.65.62-.6c.82-.81,42.65-66.44,42.76-67.12.06-.44-.28-.63-2.26-1.28-5.18-1.67-10.07-4.15-14.65-7.41-2.88-2.09-14.25-12.55-16.03-14.76-.71-.89-1.75-2.48-2.35-3.55s-1.33-2.17-1.61-2.43c-.31-.23-1.87-.91-3.48-1.51-8.09-2.9-11.88-5.45-21.66-14.63-8.23-7.75-10.97-11.4-13.49-18.13-2.06-5.4-2.74-10.04-2.74-18.36,0-4.46-.06-5.17-.48-5.48-.37-.31-14.28-.37-87.95-.44-81.47-.05-87.5-.03-87.67.39Z"/>
      <path d="M299.19,441.39c-7.61,1.77-11.65,2.35-18.64,2.74-4.58.26-14.62,0-16.91-.42-1.22-.21-1.19.05.08,2.5,3.25,6.29,10.52,12.26,20.05,16.46,6.25,2.74,10.75,3.73,16.83,3.73,4.84,0,7.55-.42,12.36-1.96,12.16-3.83,22.34-11.32,25.68-18.94.42-.94.57-1.54.37-1.62-.14-.05-3.11.05-6.56.21-10.46.5-18.27-.16-28.02-2.35-1.87-.42-3.45-.76-3.53-.73-.08,0-.85.18-1.7.37Z"/>
    </g>
  </g>
</svg>