<?xml version="1.0" encoding="UTF-8"?>
<svg id="Layer_2" xmlns="http://www.w3.org/2000/svg" viewBox="0 0 557.44 691">
  <defs>
    <style>
      .cls-1 {
        font-size: 37.89px;
      }

      .cls-1, .cls-2, .cls-3 {
        fill: #fff;
        font-family: FredokaSemiCondensed-SemiBold, 'Fredoka SemiCondensed';
        font-weight: 600;
      }

      .cls-2 {
        font-size: 39.46px;
      }

      .cls-4 {
        fill: #ff3654;
      }

      .cls-3 {
        font-size: 47.74px;
      }

      .cls-5 {
        fill: #feba0f;
      }

      .cls-6 {
        fill: #01bf8f;
      }
    </style>
  </defs>
  <g id="Layer_1-2" data-name="Layer_1">
    <g>
      <path class="cls-4" d="M441.03,155H116.3C53.83,155,3,120.23,3,77.5S53.83,0,116.3,0h324.73c62.48,0,113.3,34.77,113.3,77.5s-50.83,77.5-113.3,77.5ZM116.3,7.15C59.59,7.15,13.45,38.71,13.45,77.5s46.14,70.35,102.85,70.35h324.73c56.72,0,102.85-31.56,102.85-70.35S497.75,7.15,441.03,7.15H116.3Z"/>
      <path class="cls-5" d="M442.34,691H114.42c-63.09,0-114.42-33.2-114.42-74s51.33-74,114.42-74h327.93c63.09,0,114.42,33.2,114.42,74s-51.33,74-114.42,74ZM114.42,549.82c-57.27,0-103.87,30.13-103.87,67.17s46.59,67.18,103.87,67.18h327.93c57.27,0,103.87-30.14,103.87-67.18s-46.59-67.17-103.87-67.17H114.42Z"/>
      <path class="cls-6" d="M443.02,424H115.1c-63.09,0-114.42-32.52-114.42-72.5s51.33-72.5,114.42-72.5h327.92c63.09,0,114.42,32.52,114.42,72.5s-51.33,72.5-114.42,72.5ZM115.1,285.69c-57.27,0-103.87,29.52-103.87,65.81s46.59,65.82,103.87,65.82h327.92c57.27,0,103.87-29.52,103.87-65.82s-46.59-65.81-103.87-65.81H115.1Z"/>
    </g>
    <text class="cls-1" transform="translate(249.19 71.25) scale(.86 1)"><tspan x="0" y="0">במסך הבית תמצאו </tspan><tspan x="282.29" y="0"> </tspan><tspan x="-204.06" y="45.46">יובילו אתכם לחומר שאתם צריכים</tspan></text>
    <text class="cls-2" transform="translate(43.71 368.73) scale(.83 1)"><tspan x="0" y="0">אין סדר למידה ספציפי הכל לבחירתכם</tspan></text>
    <text class="cls-3" transform="translate(119.61 608.01) scale(.52 1)"><tspan x="0" y="0">בכל שלב תוכלו לחזור למסך הבית על ידי</tspan><tspan x="723.73" y="0"> </tspan><tspan x="-124.59" y="57.28">לחיצה על הכפתור בצורת ספר שבתחתית העמוד</tspan></text>
  </g>
</svg>