<?xml version="1.0" encoding="UTF-8"?>
<svg xmlns="http://www.w3.org/2000/svg" xmlns:xlink="http://www.w3.org/1999/xlink" viewBox="0 0 217.19 211.51">
  <defs>
    <style>
      .cls-1 {
        fill: url(#linear-gradient-15);
      }

      .cls-2 {
        fill: url(#linear-gradient-13);
      }

      .cls-3 {
        fill: url(#linear-gradient-2);
      }

      .cls-4 {
        fill: url(#linear-gradient-10);
      }

      .cls-5 {
        fill: url(#linear-gradient-12);
      }

      .cls-6 {
        fill: url(#linear-gradient-23);
      }

      .cls-6, .cls-7, .cls-8, .cls-9, .cls-10, .cls-11, .cls-12, .cls-13, .cls-14, .cls-15, .cls-16, .cls-17 {
        mix-blend-mode: overlay;
        opacity: .5;
      }

      .cls-7 {
        fill: url(#linear-gradient-30);
      }

      .cls-8 {
        fill: url(#linear-gradient-28);
      }

      .cls-9 {
        fill: url(#linear-gradient-5);
      }

      .cls-18 {
        fill: none;
      }

      .cls-19 {
        fill: url(#linear-gradient-3);
      }

      .cls-20 {
        isolation: isolate;
      }

      .cls-21 {
        fill: url(#linear-gradient-8);
      }

      .cls-10 {
        fill: url(#linear-gradient-27);
      }

      .cls-22 {
        fill: url(#linear-gradient-14);
      }

      .cls-11 {
        fill: url(#linear-gradient-29);
      }

      .cls-23 {
        fill: url(#linear-gradient-20);
      }

      .cls-24 {
        fill: url(#linear-gradient-17);
      }

      .cls-25 {
        fill: url(#linear-gradient-7);
      }

      .cls-12 {
        fill: url(#linear-gradient-25);
      }

      .cls-26 {
        fill: url(#linear-gradient-9);
      }

      .cls-27 {
        fill: url(#linear-gradient-11);
      }

      .cls-28 {
        fill: url(#linear-gradient-19);
      }

      .cls-29 {
        fill: url(#linear-gradient-6);
      }

      .cls-13 {
        fill: url(#linear-gradient-26);
      }

      .cls-30 {
        fill: url(#linear-gradient-21);
      }

      .cls-14 {
        fill: url(#linear-gradient-4);
      }

      .cls-31 {
        fill: url(#linear-gradient-16);
      }

      .cls-32 {
        fill: url(#linear-gradient);
      }

      .cls-15 {
        fill: url(#linear-gradient-22);
      }

      .cls-33 {
        fill: #beac83;
        stroke: #000;
        stroke-miterlimit: 10;
        stroke-width: .75px;
      }

      .cls-34 {
        fill: url(#linear-gradient-18);
      }

      .cls-16 {
        fill: url(#linear-gradient-24);
      }

      .cls-17 {
        fill: #fff;
      }
    </style>
    <linearGradient id="linear-gradient" x1="41.16" y1="82.92" x2="-29.04" y2="224.47" gradientUnits="userSpaceOnUse">
      <stop offset="0" stop-color="#eeb947"/>
      <stop offset="1" stop-color="#dc8a1b"/>
    </linearGradient>
    <linearGradient id="linear-gradient-2" x1="52.85" y1="141.91" x2="37.34" y2="182.01" gradientUnits="userSpaceOnUse">
      <stop offset="0" stop-color="#ebc2a1"/>
      <stop offset="1" stop-color="#ef8259"/>
    </linearGradient>
    <linearGradient id="linear-gradient-3" x1="105.84" y1="146.05" x2="16.98" y2="236.04" gradientUnits="userSpaceOnUse">
      <stop offset="0" stop-color="#29445f"/>
      <stop offset="1" stop-color="#1e2338"/>
    </linearGradient>
    <linearGradient id="linear-gradient-4" x1="57.12" y1="69.78" x2=".1" y2="200.85" gradientUnits="userSpaceOnUse">
      <stop offset="0" stop-color="#000"/>
      <stop offset="1" stop-color="#000" stop-opacity="0"/>
    </linearGradient>
    <linearGradient id="linear-gradient-5" x1="55.81" y1="67.41" x2="-2.3" y2="200.98" xlink:href="#linear-gradient-4"/>
    <linearGradient id="linear-gradient-6" x1="36.84" y1="60.55" x2="18.67" y2="79.59" xlink:href="#linear-gradient-2"/>
    <linearGradient id="linear-gradient-7" x1="26.71" y1="101.9" x2="-11.59" y2="146.33" xlink:href="#linear-gradient"/>
    <linearGradient id="linear-gradient-8" x1="100.78" y1="52.65" x2="101.5" y2="71.68" gradientUnits="userSpaceOnUse">
      <stop offset="0" stop-color="#eaddc4"/>
      <stop offset="1" stop-color="#ddc7ae"/>
    </linearGradient>
    <linearGradient id="linear-gradient-9" x1="52.12" y1="89.23" x2="-17.53" y2="229.66" xlink:href="#linear-gradient"/>
    <linearGradient id="linear-gradient-10" x1="122.53" y1="173.82" x2="119.12" y2="206.33" xlink:href="#linear-gradient-2"/>
    <linearGradient id="linear-gradient-11" x1="149.42" y1="183.8" x2="115.9" y2="223.98" gradientUnits="userSpaceOnUse">
      <stop offset="0" stop-color="#74b554"/>
      <stop offset="1" stop-color="#4a8d35"/>
    </linearGradient>
    <linearGradient id="linear-gradient-12" x1="137.08" y1="116.66" x2="56.85" y2="212.7" xlink:href="#linear-gradient-3"/>
    <linearGradient id="linear-gradient-13" x1="113.54" y1="88.09" x2="81.37" y2="114.47" xlink:href="#linear-gradient-2"/>
    <linearGradient id="linear-gradient-14" x1="99.16" y1="66.05" x2="101.95" y2="103.42" xlink:href="#linear-gradient-11"/>
    <linearGradient id="linear-gradient-15" x1="173.43" y1="165.05" x2="173.24" y2="199.15" xlink:href="#linear-gradient-2"/>
    <linearGradient id="linear-gradient-16" x1="199.52" y1="181.81" x2="164.3" y2="227.96" xlink:href="#linear-gradient-11"/>
    <linearGradient id="linear-gradient-17" x1="154.22" y1="131.39" x2="71.01" y2="231" xlink:href="#linear-gradient-3"/>
    <linearGradient id="linear-gradient-18" x1="82.32" y1="73.27" x2="77.59" y2="136.32" xlink:href="#linear-gradient-11"/>
    <linearGradient id="linear-gradient-19" x1="75.48" y1="62.8" x2="126.12" y2="62.8" xlink:href="#linear-gradient-11"/>
    <linearGradient id="linear-gradient-20" x1="49.83" y1="22.74" x2="23.14" y2="63.05" xlink:href="#linear-gradient-3"/>
    <linearGradient id="linear-gradient-21" x1="52.95" y1="39.5" x2="9.17" y2="74.14" xlink:href="#linear-gradient-2"/>
    <linearGradient id="linear-gradient-22" x1="62.03" y1="120.05" x2="83.78" y2="186.55" xlink:href="#linear-gradient-4"/>
    <linearGradient id="linear-gradient-23" x1="99.41" y1="78.2" x2="104.52" y2="105.12" xlink:href="#linear-gradient-4"/>
    <linearGradient id="linear-gradient-24" x1="21.84" y1="-9.5" x2="61.21" y2="56.31" xlink:href="#linear-gradient-4"/>
    <linearGradient id="linear-gradient-25" x1="37.32" y1="16.65" x2="53.14" y2="60.06" xlink:href="#linear-gradient-4"/>
    <linearGradient id="linear-gradient-26" x1="38.03" y1="50.02" x2="32.32" y2="77.87" xlink:href="#linear-gradient-4"/>
    <linearGradient id="linear-gradient-27" x1="41.45" y1="127.24" x2="26.12" y2="151.43" xlink:href="#linear-gradient-4"/>
    <linearGradient id="linear-gradient-28" x1="76.9" y1="125.77" x2="54.26" y2="198.3" xlink:href="#linear-gradient-4"/>
    <linearGradient id="linear-gradient-29" x1="123.76" y1="99.81" x2="145.28" y2="165.59" xlink:href="#linear-gradient-4"/>
    <linearGradient id="linear-gradient-30" x1="72.51" y1="81.04" x2="75.84" y2="101.6" xlink:href="#linear-gradient-4"/>
  </defs>
  <g class="cls-20">
    <g id="Layer_2">
      <g id="Layer_1-2" data-name="Layer_1">
        <g>
          <path class="cls-32" d="M12.82,77.3c7.44,3.31,30.67,46.49,33.93,49.39,1.42,1.26-1.7,4.24-6.29,7.65,1.47,1.65,2.88.38,6.63-3.1,5.91-5.49,20.57-17.81,20.57-20.19s.94-7.25.94-9.42c0-1.34-.3-3.07-.53-4.21-5.28-3.06-12.67-7.33-13.43-7.73-.51-.26,3.06-6.82,7.41-14.37-6.64-3.64-15.94-8.87-17.68-9.42h0c-1.35,3.98-2.96,7.61-4.52,8.33-9.07,3.11-18.67-7.38-16.51-9.4.38-.35.81-1,1.26-1.82-6.17,2.69-20.36,11.28-23.4,18.75.33-.59,4.49-7.66,11.62-4.48Z"/>
          <path class="cls-3" d="M96.07,99.83c-.09-.17-.26-.28-.48-.35-1.24-.36-4.3,1-7.55,3.14-.74.5-.48-.74.67-1.48,1.15-.74,9.78-5.01,9.41-6.33-.36-1.29-1.69-1.39-5.38.12-.09.04-.18.07-.27.11-3.9,1.63-7.74,4.78-8.67,4.23-.93-.54,8.26-7.26,7.18-8.74-1.08-1.48-5.62.58-9.07,3.42-3.46,2.83-7.51,6.52-8.48,6.56,0,0-.21-.12-.56-.32-.86-.5-2.65-1.54-4.8-2.78.23,1.13.53,2.86.53,4.21,0,2.17-.94,7.04-.94,9.42s-14.65,14.7-20.57,20.19c-3.75,3.48-5.16,4.75-6.63,3.1-5.09,3.79-11.99,8.11-16.5,11.21,2.34,4.79,7.14,13.48,13.2,14.27,8.33,1.09,35.11-37.18,39.72-38.86h0s0,0,0,0c.08-.03.15-.05.23-.08,6.54-8.16,13.22-15.43,18.6-18.94.38-.67.69-1.51.36-2.12Z"/>
          <path class="cls-19" d="M107.54,101.78c-.75-.42-1.54-.78-2.38-1.1-.81-.31-1.67-.58-2.59-.81-1.85-.47-4.19.34-6.86,2.08-5.38,3.5-12.07,10.77-18.6,18.94-.07.08-.13.17-.2.25-8.7,10.88-17.1,23.28-21.78,30.4-2.38,3.62-3.8,5.89-3.8,5.89h0c-1.32,6.36,2.18,15.22-2.52,28.18-3.77,10.4-10.42,13.96-14.43,15.26,10.29,7.89,20.71,5.78,28.17.78,3.66-2.45,6.6-5.59,8.48-8.58,6.35-10.15,25.19-51.25,25.57-47.21.2,2.15,3.88,13.38,7.27,23.41,2.97,8.79,5.73,16.66,5.73,16.66,0,0,1.23.42,3.71.13,1.64-.19,3.81-.69,6.56-1.83,6.65-2.76,12.97-8.76,12.2-11.42-.74-2.56-.74-5.41-4.51-22.18-.33-1.19-.65-2.35-.96-3.48-4.56-16.48-7.36-27.3-10.45-34.45-2.38-5.51-4.94-8.83-8.61-10.89Z"/>
          <path class="cls-14" d="M51.34,157.42s1.42-2.27,3.8-5.89c4.68-7.13,13.08-19.52,21.78-30.4,0-.06-.02-.11-.03-.17-4.61,1.68-31.39,39.94-39.72,38.86-6.06-.79-10.86-9.48-13.2-14.27-.74.51-1.42.99-2.02,1.43-6.82,5.03-16.47-28.54-21.7-43.39.8,16.85,3.47,39.74,7.51,56.33,6.35,26.09,21.42,42.04,23.8,41.62.57-.1,1.57-.28,2.83-.69,4.01-1.29,10.65-4.85,14.43-15.26,4.7-12.96,1.2-21.82,2.52-28.18h0Z"/>
          <path class="cls-9" d="M19.47,84.2c9.87,13.16,24.72,40.21,27.28,42.49,1.42,1.26-1.7,4.24-6.29,7.65,1.47,1.65,2.88.39,6.63-3.1,3.94-3.66,11.77-10.36,16.55-15.12-26.19-10.25-44.17-31.92-44.17-31.93Z"/>
          <g>
            <g>
              <path class="cls-18" d="M108.34,74.07c-1.1-.43-2.36-1.03-3.73-1.75,1.35.71,2.61,1.31,3.73,1.75Z"/>
              <path class="cls-33" d="M21.66,19.97s.07-.04.07-.04c0,0-.03.02-.07.04Z"/>
              <path class="cls-29" d="M39.84,74.24c1.56-.72,3.18-4.35,4.52-8.33.18-.54.36-1.09.53-1.63-5.59-.82-12.56-3.92-14.64-9.49-.41-1.09-.54-2.02-.76-3.62h0s-.8,2.31-1.87,5.06c-.92,2.35-2.04,5-3.04,6.8-.46.82-.89,1.47-1.26,1.82-2.16,2.02,7.44,12.5,16.51,9.4Z"/>
              <path class="cls-25" d="M21.95,146.98c.59-.44,1.27-.92,2.02-1.43,4.51-3.1,11.41-7.42,16.5-11.21,4.59-3.41,7.71-6.39,6.29-7.65-3.26-2.9-26.49-46.08-33.93-49.39-7.13-3.18-11.29,3.89-11.62,4.48-1.7,4.18-1.16,17.28-.95,21.81,5.23,14.86,14.88,48.42,21.7,43.39Z"/>
              <path class="cls-21" d="M122.61,55.45c-1.76-1.28-4.47-3.15-5.86-3.5-2.16-.54-8.93,12.27-10.64,12.66-1.71.39-21.79-14.13-23.65-14.68-.96-.28-2.34.6-3.44,1.52,5.45,3.68,28.22,19.02,30.44,19.48,2.28.47,10.52-11.48,13.15-15.48Z"/>
              <path class="cls-26" d="M51.34,157.42s1.42-2.27,3.8-5.89c4.68-7.13,13.08-19.52,21.78-30.4,0-.06-.02-.11-.03-.17-4.61,1.68-31.39,39.94-39.72,38.86-6.06-.79-10.86-9.48-13.2-14.27-.74.51-1.42.99-2.02,1.43-6.82,5.03-16.47-28.54-21.7-43.39.8,16.85,3.47,39.74,7.51,56.33,6.35,26.09,21.42,42.04,23.8,41.62.57-.1,1.57-.28,2.83-.69,4.01-1.29,10.65-4.85,14.43-15.26,4.7-12.96,1.2-21.82,2.52-28.18h0Z"/>
              <path class="cls-4" d="M129.8,180.04c-1.12.47-2.28,1.16-3.31,1.99-2.6,2.1.36,4.47-2.01,6.06-1.15.77-7.49.84-9.73,1.36-.64-1.56-1.16-2.77-1.44-3.41,1.64-.19,3.81-.69,6.56-1.83,3.57-1.48,6.9-3.79,9.19-6.04l.74,1.87Z"/>
              <path class="cls-27" d="M124.49,188.09c-1.38.93-10.31.83-10.51,1.76-.2.93-1.39,20.09,3.07,21.28,4.46,1.2,13.79-.89,23.6-.16,9.82.72,17.85-1.04,20.13-4.35,2.28-3.31,2.38-9.84-.99-10.46-3.37-.62-20.5-8.39-22.74-9.86-2.23-1.48-1.56-5.59-3.05-6.6-1.78-1.21-5.62.81-7.51,2.33-2.6,2.1.35,4.47-2.01,6.06Z"/>
              <path class="cls-5" d="M71.03,193.05c-1.87,3-4.82,6.14-8.48,8.58,4.14,1.38,10.53,1.68,19.98-1.96,6.49-2.73,14.64-16.78,21.34-30.43-3.39-10.03-7.07-21.26-7.27-23.41-.38-4.04-19.23,37.07-25.57,47.21Z"/>
              <path class="cls-2" d="M95.93,99.09c-.11.13-.22.26-.33.39.22.06.39.17.48.35.33.6.02,1.44-.36,2.12,2.66-1.73,5.01-2.54,6.86-2.08.92.23,1.78.5,2.59.81.84.32,1.64.69,2.38,1.1,1.45-2.65,2.99-6.12,2.44-8.05-.72-2.54-1.19-7.81-1.38-10.36-1.25,1.65-2.62,3.39-3.99,5.1-3.71,4.64-7.42,9.05-8.68,10.61Z"/>
              <path class="cls-22" d="M108.74,74.22c-3.04,4.07-9.46,12.7-16,20.72,3.69-1.51,5.02-1.41,5.38-.12.37,1.32-8.26,5.59-9.41,6.33-1.15.74-1.41,1.98-.67,1.48,3.26-2.15,6.32-3.5,7.55-3.14.11-.13.22-.26.33-.39,1.26-1.56,4.97-5.97,8.68-10.61,1.37-1.72,2.74-3.46,3.99-5.1,2.92-3.85,5.18-7.15,5.18-8.2,0-.23.1-.56.26-.96-.84.51-1.63.78-2.35.73-.8-.04-1.81-.3-2.95-.72Z"/>
              <path class="cls-1" d="M179.25,181.34c2.36-1.58-.6-3.96,2.01-6.06.52-.42,1.07-.8,1.63-1.14-2.05-2.12-4.24-4.19-5.94-5.72-3.28,3.52-9.55,7.95-13.1,10.13,3.22,2.76,4.89,4.54,4.89,4.54.2-.93,9.12-.83,10.51-1.76Z"/>
              <path class="cls-31" d="M195.42,204.22c9.82.72,17.85-1.04,20.13-4.35,2.28-3.31,2.38-9.84-.99-10.46-3.37-.62-20.5-8.39-22.74-9.86-2.23-1.48-1.56-5.59-3.05-6.6-1.19-.81-3.62-.17-5.88,1.19-.56.34-1.11.72-1.63,1.14-2.6,2.1.35,4.47-2.01,6.06-1.39.93-10.31.83-10.51,1.76-.2.93-1.39,20.09,3.07,21.28,4.46,1.2,13.79-.89,23.6-.16Z"/>
              <path class="cls-24" d="M178.93,165.62s-38.85-45.4-46.8-50.37c-4.56-2.85-10.9-3.5-15.99-2.57,3.09,7.15,5.89,17.97,10.45,34.45,4.36,3.17,9.6,7.59,14.55,13.21,11.21,12.74,19.24,19.47,20.13,19.57.21.02,1.18-.49,2.57-1.35,3.55-2.19,9.82-6.61,13.1-10.13.97-1.04,1.69-2.01,1.98-2.81Z"/>
              <path class="cls-34" d="M54.64,89.7c.76.4,8.15,4.67,13.43,7.73,2.14,1.24,3.93,2.28,4.8,2.78.35.2.56.32.56.32.97-.04,5.02-3.73,8.48-6.56,3.46-2.83,8-4.89,9.07-3.42,1.08,1.48-8.11,8.19-7.18,8.74.93.54,4.76-2.6,8.67-4.23.09-.04.18-.07.27-.11,6.55-8.03,12.96-16.65,16-20.72-.13-.05-.26-.1-.4-.15-1.13-.44-2.39-1.04-3.73-1.75-9.29-4.88-23.83-15.47-29.13-19.53-1.51,2.37-8.06,13.21-13.43,22.55-4.34,7.55-7.91,14.1-7.41,14.37Z"/>
              <path class="cls-28" d="M108.34,74.07c.14.05.27.1.4.15,1.15.43,2.15.68,2.95.72.72.05,1.51-.22,2.35-.73,1.8-4.33,12.08-17.95,12.08-17.95,0,0-1.97-2.49-2.88-1.8-.2.16-.36.56-.64.99-2.63,3.99-10.86,15.94-13.15,15.48-2.22-.46-25-15.79-30.44-19.48-.74-.5-1.17-.79-1.17-.79-.63-.17-1.59,1.02-2.07,1.69-.16.22-.27.38-.29.42,0,0,0,0,0,.01,5.3,4.07,19.83,14.65,29.13,19.53,1.37.72,2.64,1.32,3.73,1.75Z"/>
              <g>
                <path class="cls-18" d="M21.66,19.97s.07-.04.07-.04c0,0-.03.02-.07.04Z"/>
                <path class="cls-23" d="M78.77,31.84c-.69-5.28-4.38-9.01-7.24-10.83,0,0,7.4-1.98,5.91-4.81-1.49-2.83-11.01-2.1-13.69-3.18-2.68-1.09-1.93-4-5.76-5.75-3.83-1.75-12.27-.93-17.37.97,0,0,7.25-5.75,5.39-7.69-1.86-1.94-18,1.01-19.56,12.97,0,0-8.63-1.25-8.55,4.81.1,3.79,3.26,1.95,3.76,1.64.04-.03.07-.04.07-.04,0,0-.03.02-.07.04-.45.3-3.23,2.37-4.23,8.83-1.09,7.04-.35,8.43-1.49,10.61s-3.97,5.9,1.88,9.37c3.42,2.12,3.67,9.78,9.67,7.51.05-.02.09-.04.13-.05,1.07-2.74,1.87-5.06,1.87-5.06h0c-.19-1.37-.33-2.82-.42-4.31-2.94.03-5.24-2.59-4.98-5.63.25-2.99,2.9-5.17,5.8-4.63.64,2.76,1.8,5.99,3.8,6.76.85.33,1.85.21,3.03-.59,4.17-4.04,3.27-13.56,3.27-13.56,0,0,4.02,3.21,5.95,1.14,1.93-2.07.35-5.9.35-5.9.05.02,9.79,5.47,16.71,7.27l2.91,1.07s-.89,10.43-2.3,13.26h0c3.65.1,6.63-5.49,5.93-11.6,0,0,9.92,2.69,9.22-2.59Z"/>
                <path class="cls-30" d="M63,31.71c-7.06-1.83-16.67-7.25-16.71-7.27,0,0,1.59,3.83-.35,5.9-1.93,2.07-5.95-1.14-5.95-1.14,0,0,.89,9.53-3.27,13.56-1.18.8-2.18.92-3.03.59-2-.77-3.16-4-3.8-6.76-2.9-.54-5.54,1.64-5.8,4.63-.26,3.04,2.04,5.66,4.98,5.63.12,1.98.49,6.09,1.19,7.93,2.08,5.57,9.05,8.67,14.64,9.49,2.9.43,5.44.24,6.72-.53,1.75-1.05,8.51-9.29,10.86-14.22.4-.84.79-2.04,1.12-3.49,1.41-2.83,2.3-13.26,2.3-13.26l-2.91-1.07Z"/>
              </g>
            </g>
            <path class="cls-15" d="M71.03,193.05c-1.87,3-4.82,6.14-8.48,8.58,4.14,1.38,10.53,1.68,19.98-1.96,6.49-2.73,14.64-16.78,21.34-30.43-3.39-10.03-7.07-21.26-7.27-23.41-.38-4.04-19.23,37.07-25.57,47.21Z"/>
            <path class="cls-6" d="M95.93,99.09c-.11.13-.22.26-.33.39.22.06.39.17.48.35.33.6.02,1.44-.36,2.12,2.66-1.73,5.01-2.54,6.86-2.08.92.23,1.78.5,2.59.81.84.32,1.64.69,2.38,1.1,1.45-2.65,2.99-6.12,2.44-8.05-.72-2.54-1.19-7.81-1.38-10.36-1.25,1.65-2.62,3.39-3.99,5.1-3.71,4.64-7.42,9.05-8.68,10.61Z"/>
            <path class="cls-16" d="M78.77,31.84c-.69-5.28-4.38-9.01-7.24-10.83,0,0,7.4-1.98,5.91-4.81-1.49-2.83-11.01-2.1-13.69-3.18-2.68-1.09-1.93-4-5.76-5.75-1.92-.88-4.99-1.11-8.23-.88h0s8.3,2.81,3.78,7.68c-4.52,4.87-18.85,4.48-18.85,4.48,0,0-4.78,12.29-9.55,8.93-2.33-2.33-.41-5.23-.05-5.73-.46.61-4.07,5.35-7.7,7.31-1.03,6.8-.32,8.19-1.45,10.34-1.14,2.17-3.97,5.9,1.88,9.37,3.42,2.12,3.67,9.78,9.67,7.51.05-.02.09-.04.13-.05,1.07-2.74,1.87-5.06,1.87-5.06h0c-.19-1.37-.33-2.82-.42-4.31-2.94.03-5.24-2.59-4.98-5.63.25-2.99,2.9-5.17,5.8-4.63.64,2.76,1.8,5.99,3.8,6.76.85.33,1.85.21,3.03-.59,4.17-4.04,3.27-13.56,3.27-13.56,0,0,4.02,3.21,5.95,1.14,1.93-2.07.35-5.9.35-5.9.05.02,9.79,5.47,16.71,7.27l2.91,1.07,3.64,1.65s9.92,2.69,9.22-2.59Z"/>
            <path class="cls-12" d="M63,31.71c-7.06-1.83-16.67-7.25-16.71-7.27,0,0,1.59,3.83-.35,5.9-1.93,2.07-5.95-1.14-5.95-1.14,0,0,.89,9.53-3.27,13.56-1.18.8-2.18.92-3.03.59-2-.77-3.16-4-3.8-6.76-2.9-.54-5.54,1.64-5.8,4.63-.26,3.04,2.04,5.66,4.98,5.63.12,1.98.49,6.09,1.19,7.93,1.54,4.13,5.76,6.9,10.12,8.39-2.21-2.71-6.65-9.17-4.84-15.48,2.37-8.27,10.59-15.7,19.34-12.6,5.68,2.01,8.52,5.06,9.82,6.95.76-4.05,1.21-9.27,1.21-9.27l-2.91-1.07Z"/>
            <path class="cls-13" d="M43.03,69.48c.47-1.1.92-2.32,1.34-3.57.18-.54.36-1.09.53-1.63-5.59-.82-12.56-3.92-14.64-9.49-.41-1.09-.54-2.02-.76-3.62h0s-.8,2.31-1.87,5.06c-.42,1.06-.87,2.19-1.34,3.27,5.9,10.61,13.12,10.76,16.74,9.99Z"/>
            <path class="cls-10" d="M42.08,135.03c-.6.1-1.11-.11-1.62-.69-5.09,3.79-11.99,8.11-16.5,11.21,1.13,2.31,2.83,5.52,4.96,8.32,6-6.27,11.02-14.92,13.16-18.84Z"/>
            <path class="cls-8" d="M65.35,136.57c-4.12,5.81-7.7,11.14-10.21,14.96-2.38,3.62-3.8,5.89-3.8,5.89h0c-1.32,6.36,2.18,15.22-2.52,28.18-3.77,10.4-10.42,13.96-14.43,15.26,10.29,7.89,20.71,5.78,28.17.78,3.66-2.45,6.6-5.59,8.48-8.58,2.16-3.45,5.76-10.48,9.59-18.09-11.57-6.16-14.52-28.27-15.27-38.39Z"/>
            <path class="cls-11" d="M140.34,143.35c3.48-4.13,4.87-10.01,5.37-15.08-6.04-6.43-11.19-11.54-13.57-13.03-4.56-2.85-10.9-3.5-15.99-2.57,3.09,7.15,5.89,17.97,10.45,34.45,3.46,2.52,7.47,5.81,11.45,9.88-.81-5.05-.59-10.23,2.3-13.65Z"/>
            <path class="cls-17" d="M142.41,204.76c-13.67-.15-20.53,1.19-27.96,1.77.51,2.44,1.32,4.26,2.6,4.6,4.46,1.2,13.79-.89,23.6-.16,9.82.72,17.85-1.04,20.13-4.35.89-1.29,1.44-3.06,1.59-4.78-3.29,1.27-9.7,3.03-19.96,2.92Z"/>
            <path class="cls-17" d="M196.92,198.24c-10.04-1.16-21.05,1.47-27.82.97.5,2.72,1.33,4.8,2.71,5.17,4.46,1.2,13.79-.89,23.6-.16,9.82.72,17.85-1.04,20.13-4.35.7-1.02,1.2-2.35,1.45-3.72-3.55,1.13-11.31,3.1-20.08,2.09Z"/>
            <path class="cls-7" d="M68.07,97.42c2.14,1.24,3.93,2.28,4.8,2.78.35.2.56.32.56.32.97-.04,5.02-3.73,8.48-6.56,2.32-1.9,5.12-3.45,7.04-3.82l-29.57,2.25c2.65,1.53,5.95,3.44,8.69,5.03Z"/>
          </g>
        </g>
      </g>
    </g>
  </g>
</svg>