<?xml version="1.0" encoding="UTF-8"?>
<svg id="Layer_2" xmlns="http://www.w3.org/2000/svg" viewBox="0 0 312 143">
  <defs>
    <style>
      .cls-1, .cls-2 {
        fill: #fff;
      }

      .cls-2 {
        font-family: Asakim, Asakim;
        font-size: 89px;
      }

      .cls-3 {
        fill: #f7931e;
      }

      .cls-4 {
        fill: #fbb03b;
      }
    </style>
  </defs>
  <g id="Layer_1-2" data-name="Layer_1">
    <g>
      <path class="cls-1" d="M161,142.5c-82.99,0-150.5-30.06-150.5-67S78.01,8.5,161,8.5s150.5,30.06,150.5,67-67.51,67-150.5,67Z"/>
      <path class="cls-4" d="M161,9c82.71,0,150,29.83,150,66.5s-67.29,66.5-150,66.5S11,112.17,11,75.5,78.29,9,161,9M161,8C77.6,8,10,38.22,10,75.5s67.6,67.5,151,67.5,151-30.22,151-67.5S244.4,8,161,8h0Z"/>
    </g>
    <g>
      <path class="cls-3" d="M151,134.5C68.01,134.5.5,104.44.5,67.5S68.01.5,151,.5s150.5,30.06,150.5,67-67.51,67-150.5,67Z"/>
      <path class="cls-3" d="M151,1c82.71,0,150,29.83,150,66.5s-67.29,66.5-150,66.5S1,104.17,1,67.5,68.29,1,151,1M151,0C67.6,0,0,30.22,0,67.5s67.6,67.5,151,67.5,151-30.22,151-67.5S234.4,0,151,0h0Z"/>
    </g>
    <text class="cls-2" transform="translate(15.67 89.57)"><tspan x="0" y="0">התחל</tspan></text>
  </g>
</svg>